<svg width="102" height="86" fill="none" xmlns="http://www.w3.org/2000/svg"><path d="m17.2.38-.54.43-.06 4.53-.07 4.54-3.98.06c-5.21.1-4.83-.32-4.83 5.15v4.07H4.6c-3.38 0-4.03.15-4.4 1.06-.16.39-.23 8.92-.19 28.82L.08 77.3l.45.47c.41.41 1.19.52 7.32 1.19 18.57 2 32.44 4.09 37.14 5.6 1.72.56 2.07.6 5.81.6 3.7 0 4.12-.04 5.71-.56 4.83-1.57 18.37-3.62 37.33-5.64 6.1-.65 6.8-.78 7.22-1.19l.47-.47.06-28.43.05-28.44-.63-.64-.62-.63h-6.51V15.2c0-2.18-.06-4.14-.13-4.33-.32-.8-1.2-.97-5.04-.97h-3.66V5.7c0-6.35-.08-6.42-5.36-4.85a74.37 74.37 0 0 0-12.2 4.85c-6.17 3.04-10.42 5.95-14.62 10.02l-2.1 2.06-1.34-1.37C43.5 10.2 34.2 4.8 23.25 1.26c-4.09-1.31-5.3-1.5-6.05-.88Zm6.05 4.55C31 7.55 38.2 11.37 43.3 15.46c.88.7 2.56 2.28 3.7 3.47l2.1 2.2v27.65c0 15.23-.07 27.68-.14 27.68-.06 0-.9-.63-1.87-1.36a86.5 86.5 0 0 0-15.12-9.54c-3.92-1.9-6.36-2.78-9.48-3.43l-2.37-.47-.06-28.9c-.03-15.88-.03-28.89.02-28.89a85 85 0 0 1 3.18 1.06Zm58.29 27.85-.09 28.88-2.34.47C72.54 63.5 64.22 67.8 55.48 74.4a43.55 43.55 0 0 1-2.87 2.07c-.04 0-.08-12.45-.08-27.68V21.12l2-2.09c5.56-5.81 13.25-10.4 23.52-14 1.79-.62 3.3-1.14 3.4-1.14.09-.02.13 12.99.09 28.89Zm-64.96-4.31.06 25.44.02 10.31.48.37c.32.26 1.18.47 2.71.65 4.12.45 8.51 2.09 13.83 5.08 4.07 2.3 12.6 8.14 12.32 8.44-.04.05-.56-.13-1.12-.36a289.92 289.92 0 0 0-15.7-5.63c-6.55-2.04-13.42-3.61-17.15-3.9l-.75-.06-.07-27.74-.04-27.72H16.56l.02 15.12Zm73.81 12.6-.06 27.74-1.72.17c-5.95.59-16.5 3.56-27.79 7.87-5.9 2.24-5.51 2.1-4.74 1.44 1.25-1.08 6.27-4.61 8.9-6.23 6.78-4.22 12.49-6.5 17.31-6.91 1.15-.1 1.84-.28 2.16-.54l.5-.39V51.86c0-6.78.02-18.22.06-25.44l.04-13.07H90.44l-.05 27.72ZM7.72 46.82c0 24.15 0 24.19.46 24.77.36.45.62.56 1.44.56 4.67 0 12.51 1.83 22.66 5.28 4.65 1.6 6.16 2.17 4.95 1.96-2.13-.41-3.33-.6-6.57-1.08a558.37 558.37 0 0 0-20.24-2.52c-3.56-.37-6.6-.71-6.72-.75-.22-.07-.28-5.5-.28-26.26V22.61h4.3v24.21Zm90.47 1.96c0 20.76-.06 26.2-.26 26.26-.15.04-2.76.34-5.77.66-7.32.76-18.12 2.12-23.13 2.91-2.24.37-4.23.65-4.42.63-.5 0 4.35-1.73 9.13-3.23 7.2-2.27 12.63-3.47 16.93-3.77 1.92-.13 2.29-.22 2.72-.65l.5-.5V22.61h4.3v26.17Z" fill="#fff" fill-opacity=".29"/></svg>