<svg aria-hidden="true" style="position: absolute; width: 0; height: 0; overflow: hidden;" version="1.1" xmlns="http://www.w3.org/2000/svg" xmlns:xlink="http://www.w3.org/1999/xlink">
<defs>
<symbol id="icon-booklogo" viewBox="0 0 43 32">
<path d="M8.694 1.344c-1.453 0.090-2.807 0.301-4.116 0.625l0.156-0.033c-0.952 0.242-1.078 0.392-1.12 1.287l-0.033 0.618h-1.519c-1.621 0-1.739 0.033-1.963 0.476-0.142 0.275-0.125 26.89 0.017 27.172 0.058 0.118 0.242 0.277 0.409 0.36l0.309 0.15 1.070-0.459c5.663-2.414 11.911-2.941 18.335-1.554l1.145 0.25 1.11-0.242c1.189-0.272 2.664-0.511 4.164-0.663l0.163-0.013c1.921-0.167 5.43-0.067 7.093 0.217 2.781 0.459 4.845 1.060 7.033 2.022 1.069 0.476 1.287 0.484 1.621 0.083l0.209-0.25v-13.44c0-14.627 0.025-13.792-0.459-14.010-0.142-0.065-0.736-0.099-1.713-0.099h-1.504v-0.634c0-0.71-0.075-0.903-0.401-1.070-0.601-0.301-2.874-0.685-4.786-0.793-4.863-0.292-8.914 0.902-11.896 3.492l-0.659 0.576-0.602-0.561c-1.77-1.651-4.352-2.831-7.258-3.299-0.785-0.125-3.007-0.309-3.466-0.284-0.117 0-0.718 0.033-1.336 0.075zM13.313 3.249c2.773 0.526 4.845 1.519 6.532 3.115l0.71 0.668v10.31c0 5.671-0.017 10.307-0.042 10.307-0.154-0.071-0.286-0.146-0.41-0.231l0.009 0.006c-1.369-0.87-3.726-1.663-5.997-2.022-2.541-0.409-4.828-0.442-8.195-0.125l-0.653 0.058v-21.802l0.694-0.134c0.56-0.112 1.349-0.233 2.147-0.328l0.167-0.016c0.159-0.017 1.16-0.025 2.212-0.008 1.512 0.018 2.115 0.068 2.824 0.202zM35.725 3.207c0.511 0.075 1.112 0.184 1.337 0.242l0.409 0.1 0.025 10.893 0.017 10.893-0.643-0.058c-1.905-0.175-2.616-0.217-3.918-0.217-3.834 0-7.208 0.726-9.864 2.129l-0.861 0.452v-20.6l0.568-0.559c1.948-1.913 4.227-2.89 7.994-3.425 0.593-0.083 4.060 0.026 4.936 0.152zM3.683 16.063v10.55l0.175 0.192c0.267 0.284 0.501 0.342 1.094 0.25 1.252-0.184 3.409-0.327 4.953-0.327 2.297 0 4.227 0.25 6.056 0.786l0.71 0.209-0.793-0.058c-1.252-0.092-4.878-0.058-5.889 0.050-2.598 0.301-5.395 0.977-7.743 1.878l-0.568 0.218v-24.299h2.003v10.55zM41.105 17.665v12.146l-0.559-0.217c-2.536-0.982-5.476-1.675-8.538-1.946l-0.124-0.009c-1.145-0.092-4.302-0.058-5.397 0.050-0.317 0.033-0.267 0.008 0.292-0.167 0.936-0.284 2.581-0.601 3.759-0.718 1.252-0.125 4.953-0.050 6.349 0.125 1.194 0.159 1.663 0.167 1.896 0.042 0.409-0.217 0.401 0.083 0.401-11.061v-10.397h1.921v12.153z"></path>
</symbol>
<symbol id="icon-cart" viewBox="0 0 29 32">
<path d="M12.573 0.121c-3.667 0.46-6.464 3.469-6.464 6.969v0.751l-1.366 0.030c-1.309 0.022-1.396 0.029-1.79 0.219-0.822 0.378-1.419 1.12-1.59 2.014l-0.003 0.017c-0.123 0.744-1.401 19.059-1.357 19.496 0.088 0.893 0.832 1.863 1.709 2.213l0.416 0.168h22.718l0.416-0.168c0.876-0.35 1.622-1.322 1.709-2.213 0.044-0.438-1.235-18.745-1.359-19.49-0.049-0.285-0.13-0.54-0.242-0.778l0.008 0.018c-0.241-0.488-0.817-1.031-1.32-1.263-0.438-0.205-0.497-0.212-1.819-0.236l-1.374-0.029v-0.589c-0.007-1.768-0.803-3.633-2.119-4.955-1.148-1.189-2.694-1.987-4.424-2.18l-0.033-0.003c-0.251-0.038-0.541-0.060-0.835-0.060-0.311 0-0.616 0.024-0.914 0.071l0.033-0.004zM14.764 2.568c2.129 0.539 3.763 2.607 3.763 4.755v0.534h-10.080v-0.534c0-0.298 0.066-0.788 0.138-1.088 0.574-2.217 2.556-3.827 4.915-3.827 0.45 0 0.886 0.059 1.302 0.169l-0.035-0.008zM6.144 13.277l-0.051 3.091 0.168 0.249c0.248 0.357 0.51 0.525 0.884 0.569 0.423 0.051 0.861-0.168 1.088-0.541l0.175-0.278 0.022-3.091 0.022-3.082h10.067l0.022 3.082 0.022 3.091 0.175 0.278c0.204 0.329 0.564 0.545 0.973 0.545 0.040 0 0.080-0.002 0.12-0.006l-0.005 0c0.365-0.034 0.635-0.211 0.876-0.561 0.162-0.241 0.162-0.249 0.162-3.331v-3.097h1.132c1.090 0 1.133 0.007 1.235 0.16 0.081 0.125 0.269 2.484 0.775 9.622l0.674 9.46-0.162 0.131c-0.153 0.123-0.657 0.131-11.032 0.131-10.373 0-10.877-0.008-11.030-0.131l-0.16-0.131 0.672-9.46c0.504-7.138 0.694-9.497 0.775-9.622 0.101-0.152 0.138-0.16 1.277-0.16h1.177l-0.051 3.082z"></path>
</symbol>
<symbol id="icon-arrow" viewBox="0 0 32 32">
<path d="M16 20l-5.657-5.657 1.887-1.885 3.77 3.772 3.77-3.772 1.887 1.885-5.657 5.657z"></path>
</symbol>
<symbol id="icon-search" viewBox="0 0 32 32">
<path d="M12.058 0.070c-3.212 0.341-6.040 1.765-8.16 3.894l-0 0c-1.536 1.539-2.576 3.214-3.237 5.227-0.419 1.213-0.661 2.61-0.661 4.064s0.242 2.851 0.688 4.154l-0.027-0.090c0.676 2.059 1.793 3.816 3.245 5.229l0.003 0.003c3.050 3.034 7.205 4.41 11.491 3.803 2.343-0.346 4.43-1.242 6.19-2.552l-0.036 0.026c0.187-0.144 0.357-0.25 0.382-0.243 0.024 0.013 1.917 1.862 4.205 4.112 2.605 2.565 4.248 4.134 4.398 4.203 0.127 0.062 0.275 0.098 0.433 0.098 0.5 0 0.915-0.366 0.991-0.844l0.001-0.006c0.101-0.523 0.45-0.149-6.398-6.912l-2.136-2.115 0.362-0.424c1.562-1.808 2.592-4.096 2.987-6.597 0.15-0.976 0.15-2.763 0-3.752-0.443-2.869-1.699-5.333-3.792-7.414-2.447-2.432-5.82-3.935-9.544-3.935-0.488 0-0.969 0.026-1.443 0.076l0.059-0.005zM15.050 2.165c2.525 0.368 4.742 1.469 6.498 3.219 2.15 2.158 3.269 4.84 3.269 7.872 0 1.12-0.101 1.888-0.363 2.858-1.325 4.928-5.816 8.334-10.99 8.334-3.080 0-5.941-1.168-8.078-3.307-1.378-1.359-2.403-3.073-2.926-4.994l-0.018-0.078c-0.461-1.731-0.461-3.894 0-5.626 1.085-3.93 4.133-6.957 7.996-7.993l0.079-0.018c1.424-0.368 3.168-0.475 4.536-0.269z"></path>
</symbol>
</defs>
</svg>
