<svg aria-hidden="true" style="position: absolute; width: 0; height: 0; overflow: hidden;" version="1.1" xmlns="http://www.w3.org/2000/svg" xmlns:xlink="http://www.w3.org/1999/xlink">
<defs>
<symbol id="icon-booklogo" viewBox="0 0 43 32">
<path d="M8.694 1.344c-1.453 0.090-2.807 0.301-4.116 0.625l0.156-0.033c-0.952 0.242-1.078 0.392-1.12 1.287l-0.033 0.618h-1.519c-1.621 0-1.739 0.033-1.963 0.476-0.142 0.275-0.125 26.89 0.017 27.172 0.058 0.118 0.242 0.277 0.409 0.36l0.309 0.15 1.070-0.459c5.663-2.414 11.911-2.941 18.335-1.554l1.145 0.25 1.11-0.242c1.189-0.272 2.664-0.511 4.164-0.663l0.163-0.013c1.921-0.167 5.43-0.067 7.093 0.217 2.781 0.459 4.845 1.060 7.033 2.022 1.069 0.476 1.287 0.484 1.621 0.083l0.209-0.25v-13.44c0-14.627 0.025-13.792-0.459-14.010-0.142-0.065-0.736-0.099-1.713-0.099h-1.504v-0.634c0-0.71-0.075-0.903-0.401-1.070-0.601-0.301-2.874-0.685-4.786-0.793-4.863-0.292-8.914 0.902-11.896 3.492l-0.659 0.576-0.602-0.561c-1.77-1.651-4.352-2.831-7.258-3.299-0.785-0.125-3.007-0.309-3.466-0.284-0.117 0-0.718 0.033-1.336 0.075zM13.313 3.249c2.773 0.526 4.845 1.519 6.532 3.115l0.71 0.668v10.31c0 5.671-0.017 10.307-0.042 10.307-0.154-0.071-0.286-0.146-0.41-0.231l0.009 0.006c-1.369-0.87-3.726-1.663-5.997-2.022-2.541-0.409-4.828-0.442-8.195-0.125l-0.653 0.058v-21.802l0.694-0.134c0.56-0.112 1.349-0.233 2.147-0.328l0.167-0.016c0.159-0.017 1.16-0.025 2.212-0.008 1.512 0.018 2.115 0.068 2.824 0.202zM35.725 3.207c0.511 0.075 1.112 0.184 1.337 0.242l0.409 0.1 0.025 10.893 0.017 10.893-0.643-0.058c-1.905-0.175-2.616-0.217-3.918-0.217-3.834 0-7.208 0.726-9.864 2.129l-0.861 0.452v-20.6l0.568-0.559c1.948-1.913 4.227-2.89 7.994-3.425 0.593-0.083 4.060 0.026 4.936 0.152zM3.683 16.063v10.55l0.175 0.192c0.267 0.284 0.501 0.342 1.094 0.25 1.252-0.184 3.409-0.327 4.953-0.327 2.297 0 4.227 0.25 6.056 0.786l0.71 0.209-0.793-0.058c-1.252-0.092-4.878-0.058-5.889 0.050-2.598 0.301-5.395 0.977-7.743 1.878l-0.568 0.218v-24.299h2.003v10.55zM41.105 17.665v12.146l-0.559-0.217c-2.536-0.982-5.476-1.675-8.538-1.946l-0.124-0.009c-1.145-0.092-4.302-0.058-5.397 0.050-0.317 0.033-0.267 0.008 0.292-0.167 0.936-0.284 2.581-0.601 3.759-0.718 1.252-0.125 4.953-0.050 6.349 0.125 1.194 0.159 1.663 0.167 1.896 0.042 0.409-0.217 0.401 0.083 0.401-11.061v-10.397h1.921v12.153z"></path>
</symbol>
<symbol id="icon-cart" viewBox="0 0 29 32">
<path d="M12.573 0.121c-3.667 0.46-6.464 3.469-6.464 6.969v0.751l-1.366 0.030c-1.309 0.022-1.396 0.029-1.79 0.219-0.822 0.378-1.419 1.12-1.59 2.014l-0.003 0.017c-0.123 0.744-1.401 19.059-1.357 19.496 0.088 0.893 0.832 1.863 1.709 2.213l0.416 0.168h22.718l0.416-0.168c0.876-0.35 1.622-1.322 1.709-2.213 0.044-0.438-1.235-18.745-1.359-19.49-0.049-0.285-0.13-0.54-0.242-0.778l0.008 0.018c-0.241-0.488-0.817-1.031-1.32-1.263-0.438-0.205-0.497-0.212-1.819-0.236l-1.374-0.029v-0.589c-0.007-1.768-0.803-3.633-2.119-4.955-1.148-1.189-2.694-1.987-4.424-2.18l-0.033-0.003c-0.251-0.038-0.541-0.060-0.835-0.060-0.311 0-0.616 0.024-0.914 0.071l0.033-0.004zM14.764 2.568c2.129 0.539 3.763 2.607 3.763 4.755v0.534h-10.080v-0.534c0-0.298 0.066-0.788 0.138-1.088 0.574-2.217 2.556-3.827 4.915-3.827 0.45 0 0.886 0.059 1.302 0.169l-0.035-0.008zM6.144 13.277l-0.051 3.091 0.168 0.249c0.248 0.357 0.51 0.525 0.884 0.569 0.423 0.051 0.861-0.168 1.088-0.541l0.175-0.278 0.022-3.091 0.022-3.082h10.067l0.022 3.082 0.022 3.091 0.175 0.278c0.204 0.329 0.564 0.545 0.973 0.545 0.040 0 0.080-0.002 0.12-0.006l-0.005 0c0.365-0.034 0.635-0.211 0.876-0.561 0.162-0.241 0.162-0.249 0.162-3.331v-3.097h1.132c1.090 0 1.133 0.007 1.235 0.16 0.081 0.125 0.269 2.484 0.775 9.622l0.674 9.46-0.162 0.131c-0.153 0.123-0.657 0.131-11.032 0.131-10.373 0-10.877-0.008-11.030-0.131l-0.16-0.131 0.672-9.46c0.504-7.138 0.694-9.497 0.775-9.622 0.101-0.152 0.138-0.16 1.277-0.16h1.177l-0.051 3.082z"></path>
</symbol>
<symbol id="icon-arrow" viewBox="0 0 32 32">
<path d="M16 20l-5.657-5.657 1.887-1.885 3.77 3.772 3.77-3.772 1.887 1.885-5.657 5.657z"></path>
</symbol>
<symbol id="icon-search" viewBox="0 0 32 32">
<path d="M12.058 0.070c-3.212 0.341-6.040 1.765-8.16 3.894l-0 0c-1.536 1.539-2.576 3.214-3.237 5.227-0.419 1.213-0.661 2.61-0.661 4.064s0.242 2.851 0.688 4.154l-0.027-0.090c0.676 2.059 1.793 3.816 3.245 5.229l0.003 0.003c3.050 3.034 7.205 4.41 11.491 3.803 2.343-0.346 4.43-1.242 6.19-2.552l-0.036 0.026c0.187-0.144 0.357-0.25 0.382-0.243 0.024 0.013 1.917 1.862 4.205 4.112 2.605 2.565 4.248 4.134 4.398 4.203 0.127 0.062 0.275 0.098 0.433 0.098 0.5 0 0.915-0.366 0.991-0.844l0.001-0.006c0.101-0.523 0.45-0.149-6.398-6.912l-2.136-2.115 0.362-0.424c1.562-1.808 2.592-4.096 2.987-6.597 0.15-0.976 0.15-2.763 0-3.752-0.443-2.869-1.699-5.333-3.792-7.414-2.447-2.432-5.82-3.935-9.544-3.935-0.488 0-0.969 0.026-1.443 0.076l0.059-0.005zM15.050 2.165c2.525 0.368 4.742 1.469 6.498 3.219 2.15 2.158 3.269 4.84 3.269 7.872 0 1.12-0.101 1.888-0.363 2.858-1.325 4.928-5.816 8.334-10.99 8.334-3.080 0-5.941-1.168-8.078-3.307-1.378-1.359-2.403-3.073-2.926-4.994l-0.018-0.078c-0.461-1.731-0.461-3.894 0-5.626 1.085-3.93 4.133-6.957 7.996-7.993l0.079-0.018c1.424-0.368 3.168-0.475 4.536-0.269z"></path>
</symbol>
<symbol id="icon-price" viewBox="0 0 32 32">
<path  d="M23.156 3.119c-0.8 0.294-0.862 0.344-4.137 3.3-2.25 2.025-2.525 2.3-2.681 2.625l-0.181 0.363-0.019 3.013-0.019 3.019h-3.169l0.213-0.594c0.581-1.625 0.619-3.331 0.106-4.381-0.262-0.544-0.7-0.988-1.238-1.25-0.519-0.256-0.9-0.306-1.075-0.137-0.063 0.069-0.244 0.675-0.463 1.544-0.2 0.813-0.438 1.619-0.55 1.85-0.256 0.556-0.719 1-1.769 1.706-0.931 0.631-1.206 0.9-1.787 1.75-0.444 0.644-0.725 0.919-1.056 1.006-0.431 0.119-0.5 0.1-0.537-0.188-0.050-0.356-0.3-0.706-0.619-0.863-0.256-0.125-0.375-0.131-1.756-0.131-1.825 0-2.025 0.056-2.3 0.656-0.113 0.238-0.119 0.556-0.119 5.981 0 3.9 0.019 5.787 0.069 5.906 0.081 0.212 0.344 0.5 0.569 0.619 0.244 0.125 3.294 0.125 3.537 0 0.4-0.212 0.638-0.65 0.638-1.188v-0.344l0.425 0.163c0.894 0.344 2.125 0.712 2.819 0.85 0.7 0.131 0.85 0.137 4.756 0.137 2.875 0 4.087-0.019 4.225-0.069 0.15-0.056 0.269-0.056 0.531 0.012 0.281 0.075 1.375 0.088 6.65 0.075l6.313-0.019 0.331-0.15c0.2-0.088 0.444-0.275 0.631-0.475 0.55-0.606 0.512 0.181 0.494-9.781-0.019-9.706 0.012-8.944-0.406-9.444-0.188-0.225-4.819-4.4-5.425-4.9-0.206-0.163-0.587-0.4-0.844-0.525-0.438-0.212-0.513-0.225-1.156-0.237-0.538-0.013-0.756 0.006-1 0.1zM24.906 4.175c0.469 0.225 0.6 0.331 3.5 2.944 1.306 1.175 2.425 2.225 2.488 2.338 0.1 0.188 0.106 0.725 0.106 8.794 0 8.262-0.006 8.606-0.119 8.812-0.063 0.119-0.212 0.275-0.325 0.344-0.206 0.125-0.338 0.125-6.256 0.144-3.544 0.006-6.050-0.006-6.050-0.044 0-0.031 0.044-0.163 0.1-0.294 0.156-0.356 0.144-1.044-0.025-1.419-0.125-0.287-0.125-0.294-0.013-0.294 0.225 0 0.756-0.238 1.031-0.469 0.181-0.144 0.35-0.369 0.481-0.644 0.181-0.356 0.206-0.481 0.206-0.887s-0.031-0.531-0.2-0.869l-0.194-0.4 0.294-0.287c0.781-0.769 0.844-1.963 0.137-2.769-0.137-0.15-0.344-0.325-0.469-0.394s-0.219-0.137-0.206-0.156c0.244-0.413 0.325-0.694 0.325-1.156 0-0.425-0.025-0.556-0.175-0.856-0.212-0.438-0.688-0.875-1.094-1.019-0.163-0.056-0.525-0.119-0.806-0.137l-0.519-0.038v-2.844c0-2.75 0.006-2.856 0.131-3.1 0.088-0.181 0.813-0.869 2.531-2.413 2.881-2.587 2.956-2.65 3.431-2.881 0.531-0.256 1.15-0.256 1.688-0.006zM12.019 10.413c0.481 0.475 0.637 1.050 0.588 2.15-0.050 1.112-0.419 2.362-0.881 2.963-0.081 0.106-0.162 0.256-0.188 0.331-0.056 0.181 0.113 0.506 0.294 0.55 0.075 0.019 1.5 0.038 3.169 0.050l3.031 0.013 0.231 0.144c0.25 0.156 0.488 0.569 0.488 0.856s-0.238 0.7-0.488 0.856c-0.225 0.144-0.262 0.144-2.45 0.163-2.162 0.019-2.219 0.025-2.356 0.15-0.144 0.131-0.181 0.375-0.106 0.581 0.106 0.269 0.263 0.281 2.95 0.281 2.556 0 2.556 0 2.769 0.144 0.363 0.244 0.506 0.525 0.481 0.906-0.031 0.35-0.156 0.569-0.45 0.788-0.163 0.125-0.269 0.131-2.863 0.163l-2.687 0.031-0.119 0.15c-0.162 0.2-0.15 0.481 0.037 0.663l0.15 0.156h2.331c2.294 0 2.337 0.006 2.581 0.144 0.337 0.188 0.55 0.594 0.512 0.975-0.031 0.306-0.181 0.538-0.481 0.737-0.206 0.144-0.225 0.144-2.513 0.144-2.419 0-2.594 0.019-2.7 0.281-0.075 0.2-0.037 0.431 0.1 0.575 0.131 0.144 0.15 0.144 1.637 0.144 1.331 0 1.538 0.019 1.763 0.119 0.844 0.381 0.806 1.519-0.062 1.85-0.244 0.094-0.656 0.1-4.169 0.075-3.894-0.025-3.9-0.025-4.619-0.181-0.394-0.088-1.056-0.275-1.469-0.425-0.412-0.144-0.969-0.338-1.231-0.431l-0.487-0.162v-8.319l0.431-0.063c0.819-0.131 1.219-0.412 1.856-1.319 0.612-0.875 0.838-1.094 1.65-1.65 0.956-0.65 1.381-1.012 1.719-1.463 0.387-0.519 0.613-1.1 0.919-2.337 0.281-1.163 0.269-1.144 0.631-0.781zM3.8 22.388l0.013 5.613h-2.813v-5.581c0-3.075 0.019-5.606 0.044-5.631 0.025-0.019 0.65-0.031 1.387-0.025l1.35 0.019 0.019 5.606z"></path>
<path  d="M23.412 6.25c-0.4 0.156-0.806 0.556-0.981 0.963-0.194 0.463-0.15 1.163 0.106 1.581 0.775 1.25 2.569 1.125 3.169-0.225 0.35-0.8-0.044-1.856-0.856-2.269-0.369-0.194-1.038-0.213-1.438-0.050zM24.481 7.25c0.281 0.169 0.362 0.35 0.337 0.794-0.012 0.219-0.356 0.569-0.606 0.619-0.444 0.081-0.9-0.287-0.9-0.731 0-0.656 0.625-1.019 1.169-0.681z"></path>
<path  d="M23.694 13.725c-0.1 0.131-0.131 0.256-0.131 0.556v0.394l-0.288 0.069c-0.75 0.188-1.45 0.75-1.75 1.4-0.156 0.331-0.181 0.469-0.181 0.919 0 0.444 0.025 0.587 0.163 0.881 0.375 0.8 1.119 1.244 2.544 1.525 1.413 0.281 2.013 0.744 2.013 1.556 0 0.675-0.556 1.144-1.525 1.281-1.15 0.162-2.163-0.325-2.444-1.188-0.119-0.35-0.287-0.494-0.569-0.494-0.287 0-0.488 0.262-0.444 0.581 0.050 0.381 0.35 0.894 0.731 1.256 0.394 0.375 0.806 0.606 1.369 0.763l0.381 0.106v0.4c0 0.344 0.025 0.425 0.156 0.55 0.212 0.219 0.538 0.212 0.712-0.006 0.1-0.131 0.131-0.256 0.131-0.55v-0.388l0.45-0.106c0.869-0.2 1.494-0.625 1.831-1.238 0.175-0.312 0.188-0.387 0.188-0.962 0-0.512-0.025-0.681-0.137-0.919-0.212-0.462-0.656-0.894-1.206-1.169-0.45-0.225-0.731-0.306-1.813-0.538-0.6-0.125-1.094-0.375-1.337-0.675-0.175-0.219-0.194-0.287-0.194-0.669 0-0.587 0.2-0.881 0.812-1.188 0.388-0.194 0.488-0.219 0.938-0.219 0.8 0.006 1.294 0.287 1.75 0.994 0.119 0.188 0.281 0.375 0.35 0.419 0.269 0.137 0.681-0.113 0.681-0.413 0-0.25-0.294-0.769-0.637-1.137-0.337-0.35-0.844-0.644-1.356-0.775l-0.319-0.081v-0.413c0-0.356-0.019-0.437-0.144-0.55-0.212-0.2-0.556-0.188-0.725 0.025z"></path>
</symbol>
<symbol id="icon-support" viewBox="0 0 32 32">
<path  d="M16.344 0.069c-4.756 0.481-8.912 3.275-11.2 7.525l-0.3 0.563h-0.406c-0.769 0-0.856 0.063-2.544 1.738-1.9 1.887-1.863 1.825-1.863 3.231 0.006 1.037 0.087 1.625 0.388 2.656 0.244 0.856 0.7 1.962 0.844 2.038 0.206 0.106 0.494 0.044 0.637-0.15l0.131-0.175-0.15-0.388c-0.65-1.706-0.863-2.55-0.925-3.675-0.063-1.25-0.113-1.162 1.5-2.787 0.756-0.763 1.475-1.438 1.594-1.494 0.281-0.131 0.756-0.081 1.019 0.106 0.106 0.075 0.825 0.981 1.6 2.012 1.075 1.431 1.412 1.925 1.412 2.063 0 0.144-0.175 0.356-1 1.187-0.556 0.556-1.037 1.075-1.081 1.156-0.037 0.081-0.069 0.287-0.075 0.456 0 0.269 0.044 0.387 0.294 0.794 1.631 2.637 4.269 5.506 6.95 7.525 0.606 0.463 1.975 1.394 2.262 1.544 0.181 0.1 0.706 0.1 0.894 0.006 0.081-0.044 0.6-0.525 1.156-1.081 0.831-0.825 1.044-1 1.187-1 0.137 0 0.631 0.337 2.069 1.419 1.131 0.844 1.944 1.5 2.012 1.619 0.175 0.281 0.219 0.575 0.131 0.875-0.063 0.219-0.319 0.506-1.494 1.675-1.663 1.656-1.563 1.606-2.819 1.538-1.238-0.069-2.475-0.4-3.938-1.063-2.331-1.056-5.388-3.225-7.444-5.294-1.344-1.35-3.094-3.606-4.144-5.35-0.131-0.212-0.275-0.406-0.331-0.425-0.313-0.119-0.65 0.1-0.65 0.425 0 0.463 2.006 3.294 3.631 5.131 1.962 2.219 5.063 4.606 7.813 6.019 2.656 1.363 5.544 1.887 6.837 1.25 0.144-0.075 0.869-0.744 1.731-1.6 1.675-1.662 1.756-1.781 1.762-2.544l0.006-0.438 0.563-0.3c4.069-2.194 6.725-5.969 7.45-10.575 0.131-0.856 0.15-3.044 0.031-3.875-0.269-1.888-0.894-3.719-1.781-5.244-0.756-1.3-1.688-2.475-1.962-2.475-0.075 0-0.212 0.069-0.306 0.144-0.281 0.244-0.238 0.444 0.256 1.050 1.362 1.669 2.35 3.812 2.744 5.956 0.7 3.775-0.3 7.725-2.712 10.756-1.087 1.362-2.756 2.731-4.2 3.444l-0.481 0.238-0.269-0.25c-0.15-0.131-0.363-0.312-0.481-0.4l-0.206-0.156 0.644-0.325c1.256-0.625 2.287-1.381 3.312-2.431 1.7-1.75 2.694-3.644 3.225-6.131 0.162-0.75 0.169-0.9 0.169-2.331s-0.006-1.581-0.169-2.344c-0.431-2.025-1.25-3.781-2.469-5.287-0.519-0.638-1.688-1.756-2.319-2.206-1.481-1.056-3.25-1.813-5.038-2.138-0.75-0.138-2.725-0.188-3.519-0.087-2.3 0.281-4.431 1.181-6.219 2.619-0.262 0.219-0.513 0.444-0.544 0.506-0.106 0.194-0.069 0.406 0.081 0.55 0.244 0.225 0.419 0.175 0.994-0.281 1.687-1.344 3.481-2.131 5.55-2.431 0.994-0.144 2.756-0.094 3.712 0.094 1.488 0.3 3.175 1.025 4.344 1.863 2.544 1.831 4.256 4.694 4.631 7.769 0.081 0.681 0.081 2.069 0 2.75-0.219 1.769-0.944 3.65-1.988 5.125-0.538 0.763-1.875 2.1-2.637 2.637-0.613 0.431-1.619 0.988-2.287 1.256l-0.381 0.15-1.106-0.825c-0.606-0.456-1.194-0.869-1.3-0.913-0.263-0.106-0.775-0.1-1.063 0.025-0.144 0.063-0.587 0.463-1.181 1.069-0.525 0.538-0.994 0.975-1.056 0.975-0.056 0-0.425-0.212-0.819-0.481-2.994-2-5.681-4.675-7.662-7.644-0.244-0.363-0.469-0.719-0.506-0.788-0.063-0.125 0.019-0.225 0.931-1.119 0.625-0.606 1.044-1.069 1.1-1.206 0.125-0.288 0.131-0.8 0.025-1.063-0.044-0.106-0.456-0.694-0.913-1.306l-0.831-1.106 0.125-0.319c0.237-0.6 0.869-1.756 1.269-2.312 0.469-0.65 0.519-0.875 0.244-1.087-0.225-0.175-0.412-0.162-0.619 0.037-0.281 0.287-1.006 1.412-1.356 2.119l-0.331 0.663-0.156-0.206c-0.088-0.119-0.269-0.331-0.4-0.481l-0.25-0.269 0.237-0.481c0.513-1.037 1.4-2.25 2.35-3.206 3.681-3.7 9.2-4.912 14.106-3.081 1.181 0.438 2.65 1.269 3.581 2.019 0.219 0.175 0.469 0.338 0.55 0.362 0.325 0.081 0.625-0.237 0.538-0.575-0.069-0.288-1.55-1.344-2.775-1.988-1.306-0.688-2.925-1.212-4.438-1.45-0.781-0.119-2.744-0.169-3.531-0.087z"></path>
<path  d="M11.719 11.144c-0.563 0.188-0.906 0.475-1.15 0.969-0.2 0.394-0.194 0.687 0.019 0.869 0.094 0.075 0.219 0.144 0.281 0.144 0.188 0 0.419-0.225 0.5-0.494 0.075-0.256 0.338-0.512 0.619-0.6 0.387-0.119 0.956 0.219 1.069 0.637 0.125 0.444-0.119 0.888-1.619 2.925-0.444 0.606-0.825 1.15-0.844 1.213-0.062 0.2 0.081 0.444 0.319 0.544 0.181 0.075 0.494 0.088 1.663 0.075 1.425-0.019 1.438-0.019 1.556-0.169 0.156-0.188 0.15-0.45-0.006-0.619-0.125-0.131-0.181-0.137-1.156-0.137h-1.025l0.819-1.144c0.856-1.187 1.137-1.688 1.231-2.188 0.144-0.769-0.312-1.612-1.037-1.931-0.356-0.156-0.913-0.2-1.238-0.094z"></path>
<path d="M16.65 11.244c-0.244 0.15-0.413 0.369-0.875 1.162-0.887 1.525-1.587 2.825-1.587 2.956 0 0.081 0.069 0.213 0.156 0.294 0.15 0.156 0.162 0.156 1.312 0.156h1.156v0.563c0 0.594 0.087 0.887 0.281 0.962 0.2 0.075 0.388 0.037 0.519-0.106 0.112-0.119 0.137-0.225 0.15-0.762l0.019-0.619 0.206-0.044c0.294-0.056 0.45-0.225 0.45-0.469 0-0.256-0.2-0.463-0.45-0.463h-0.175v-1.456c0-0.794-0.031-1.556-0.063-1.681-0.087-0.306-0.444-0.613-0.706-0.613-0.112 0-0.287 0.056-0.394 0.119zM16.875 13.687v1.188h-0.687c-0.375 0-0.687-0.019-0.687-0.044 0-0.088 1.294-2.331 1.344-2.331 0.019 0 0.031 0.531 0.031 1.187z"></path>
<path  d="M21.394 11.219c-0.094 0.062-0.469 0.944-1.231 2.862-0.606 1.525-1.1 2.831-1.1 2.913 0 0.181 0.269 0.444 0.456 0.444 0.087 0 0.212-0.050 0.281-0.113 0.137-0.112 2.325-5.55 2.325-5.769 0-0.169-0.275-0.431-0.45-0.431-0.081 0-0.206 0.044-0.281 0.094z"></path>
<path  d="M23.156 11.281c-0.188 0.181-0.2 0.4-0.037 0.6 0.119 0.144 0.15 0.15 1.337 0.181l1.213 0.031-1.019 2.313c-0.619 1.4-1.019 2.394-1.025 2.512 0 0.369 0.419 0.594 0.706 0.375 0.125-0.087 2.544-5.544 2.544-5.738 0-0.069-0.069-0.194-0.156-0.275l-0.15-0.156h-3.263l-0.15 0.156z"></path>
</symbol>
<symbol id="icon-teacher" viewBox="0 0 32 32">
<path  d="M15.125 0.044c-0.863 0.087-2 0.425-2.813 0.831-0.5 0.25-1.394 0.863-1.575 1.075-0.15 0.169-0.144 0.456 0.013 0.613 0.213 0.212 0.462 0.163 0.969-0.212 0.95-0.688 2.063-1.15 3.219-1.325 0.762-0.113 1.294-0.113 2.112 0.012 1.581 0.231 2.806 0.837 3.888 1.913 0.256 0.256 0.556 0.512 0.663 0.569 0.294 0.15 0.744 0.688 0.95 1.125 0.319 0.688 0.388 1.219 0.388 3.144v1.725l-0.137-0.037c-0.081-0.025-0.262-0.063-0.4-0.081l-0.262-0.031-0.025-0.856c-0.019-0.525-0.063-0.912-0.113-1.019-0.081-0.175-0.506-0.425-0.725-0.425-0.362 0-0.925-0.419-1.363-1.019-0.212-0.287-0.456-0.419-0.787-0.419-0.306 0-0.394 0.044-0.969 0.475-1.512 1.125-3.325 1.6-5.362 1.406-0.463-0.044-0.969-0.063-1.119-0.037-0.856 0.144-1.587 0.787-1.831 1.613-0.069 0.238-0.1 0.269-0.319 0.3-0.131 0.019-0.338 0.056-0.444 0.081l-0.206 0.050v-0.9c0-1.806 0.262-2.956 0.944-4.125 0.137-0.237 0.244-0.5 0.244-0.606 0-0.4-0.481-0.594-0.769-0.306-0.219 0.225-0.762 1.331-0.975 2-0.281 0.881-0.381 1.813-0.381 3.463 0 0.963-0.025 1.45-0.075 1.544-0.037 0.075-0.075 0.306-0.075 0.512 0 0.906 0.694 1.65 1.65 1.762 0.331 0.038 0.337 0.050 0.406 0.488 0.063 0.4 0.338 1.206 0.544 1.619 0.475 0.95 1.231 1.806 2.113 2.394l0.438 0.287v0.787l-0.575 0.4c-0.556 0.388-0.669 0.431-2.613 1.106-1.119 0.388-2.169 0.775-2.344 0.869-0.469 0.25-0.981 0.794-1.244 1.325-0.206 0.419-0.3 0.825-0.95 4.056-0.65 3.25-0.719 3.644-0.694 4.125 0.031 0.8 0.294 1.213 0.95 1.513l0.313 0.144 13.656 0.031 0.156-0.15c0.2-0.2 0.2-0.438 0-0.631l-0.15-0.156h-9.756v-2.212c0-2.137-0.006-2.212-0.131-2.375-0.169-0.212-0.444-0.219-0.65-0.006l-0.156 0.15v4.444l-1.325-0.006c-0.906 0-1.4-0.031-1.55-0.081-0.294-0.106-0.45-0.387-0.444-0.806 0-0.287 1.288-6.837 1.431-7.331 0.15-0.481 0.513-0.938 0.931-1.163 0.306-0.169 2.319-0.9 2.356-0.856 0.006 0.012 0.275 0.506 0.594 1.094 0.569 1.050 0.7 1.213 0.981 1.213 0.15 0 0.4-0.294 0.4-0.469 0-0.088-0.238-0.6-0.531-1.131-0.294-0.538-0.531-1-0.531-1.019 0-0.025 0.15-0.094 0.325-0.15 0.262-0.081 0.344-0.088 0.4-0.025 0.037 0.038 0.894 1.6 1.9 3.469 1.075 1.994 1.894 3.444 1.981 3.513 0.231 0.181 0.494 0.163 0.7-0.044 0.087-0.1 0.994-1.7 2-3.569 1.006-1.863 1.856-3.4 1.881-3.419 0.038-0.025 0.613 0.137 0.681 0.194 0.044 0.038-3.781 7.063-3.962 7.269-0.5 0.569-1.4 0.581-1.919 0.031-0.094-0.1-0.556-0.906-1.037-1.794s-0.925-1.669-0.981-1.738c-0.244-0.262-0.781-0.050-0.781 0.319 0 0.244 1.863 3.6 2.169 3.912 0.537 0.531 1.387 0.769 2.137 0.587 0.419-0.1 0.988-0.481 1.231-0.825 0.106-0.15 1.063-1.869 2.119-3.831s1.931-3.575 1.944-3.587c0.038-0.044 2.050 0.687 2.356 0.856 0.312 0.169 0.637 0.513 0.819 0.869 0.113 0.231 0.444 1.775 1.1 5.175 0.506 2.606 0.525 2.888 0.219 3.131-0.244 0.194-0.387 0.212-1.819 0.212h-1.275v-4.444l-0.156-0.15c-0.206-0.212-0.481-0.206-0.65 0.006-0.125 0.163-0.131 0.238-0.131 2.375v2.212h-0.5c-0.456 0-0.519 0.019-0.656 0.156-0.2 0.194-0.2 0.431 0 0.631l0.156 0.156 2.456-0.019c2.406-0.019 2.456-0.019 2.762-0.162 0.656-0.3 0.919-0.713 0.95-1.513 0.025-0.481-0.044-0.869-0.694-4.094-0.394-1.962-0.775-3.719-0.844-3.906-0.162-0.425-0.6-0.994-0.994-1.281-0.387-0.281-0.694-0.406-2.888-1.163-1.75-0.6-1.875-0.656-2.419-1.038l-0.581-0.4v-0.912l0.362-0.238c0.794-0.531 1.55-1.4 2.013-2.331 0.231-0.456 0.506-1.319 0.594-1.844 0.031-0.213 0.050-0.231 0.25-0.231 0.325 0 0.862-0.225 1.169-0.494 0.475-0.425 0.706-1.1 0.544-1.6-0.056-0.175-0.094-0.981-0.119-2.75-0.050-2.825-0.062-2.925-0.531-3.881-0.287-0.581-0.762-1.131-1.231-1.431-0.113-0.075-0.419-0.344-0.681-0.6-1.55-1.512-3.988-2.319-6.306-2.075zM19.412 6.931c0.3 0.425 0.881 0.838 1.381 0.981l0.337 0.1-0.019 0.838-0.019 0.844-0.231 0.131-0.238 0.137-0.169-0.162c-0.331-0.306-0.425-0.325-1.606-0.35-0.613-0.013-1.263-0.006-1.444 0.019-0.381 0.044-0.844 0.319-0.956 0.563-0.069 0.144-0.1 0.156-0.525 0.156-0.45 0-0.456-0.006-0.594-0.219-0.081-0.119-0.262-0.281-0.406-0.356-0.25-0.131-0.362-0.144-1.481-0.162-1.363-0.025-1.662 0.019-2.025 0.312l-0.244 0.188-0.219-0.113c-0.119-0.069-0.238-0.156-0.25-0.2-0.069-0.169 0.119-0.594 0.381-0.85 0.388-0.387 0.65-0.444 1.613-0.35 2.156 0.219 4.337-0.338 5.894-1.5 0.275-0.2 0.513-0.369 0.531-0.369s0.15 0.162 0.287 0.362zM9.75 11.131v0.825l-0.25-0.037c-0.531-0.069-0.9-0.563-0.75-1.006 0.106-0.325 0.481-0.6 0.831-0.6h0.169v0.819zM22.731 10.469c0.194 0.131 0.394 0.456 0.394 0.656s-0.2 0.525-0.394 0.656c-0.088 0.056-0.256 0.119-0.381 0.137l-0.225 0.037v-1.663l0.225 0.038c0.125 0.019 0.294 0.081 0.381 0.137zM14.525 10.475c0.137 0.131 0.144 1.2 0.013 1.456-0.175 0.337-0.325 0.381-1.256 0.381-1.219 0-1.344-0.106-1.344-1.181 0-0.531 0.019-0.637 0.113-0.687 0.063-0.038 0.588-0.069 1.244-0.069 0.95 0 1.15 0.019 1.231 0.1zM19.756 10.438c0.106 0.062 0.119 0.137 0.119 0.756v0.694l-0.425 0.425h-0.85c-0.625 0-0.906-0.025-1.031-0.094-0.275-0.137-0.381-0.437-0.381-1.069 0-0.8-0.044-0.775 1.325-0.775 0.656 0 1.169 0.025 1.244 0.063zM11 11.463c0.006 0.8 0.313 1.325 0.969 1.638 0.287 0.137 0.387 0.15 1.312 0.15 0.869 0 1.037-0.019 1.281-0.131 0.625-0.281 1-0.888 1-1.619v-0.375h0.669l0.031 0.456c0.050 0.756 0.394 1.275 1.031 1.556 0.244 0.106 0.4 0.119 1.319 0.1 1.162-0.019 1.319-0.063 1.719-0.469 0.344-0.344 0.444-0.6 0.469-1.238 0.019-0.425 0.044-0.581 0.125-0.644 0.056-0.038 0.119-0.075 0.15-0.075 0.025 0 0.050 0.469 0.050 1.044 0 0.831-0.025 1.156-0.125 1.562-0.331 1.381-1.225 2.594-2.437 3.306-1.231 0.725-2.888 0.913-4.219 0.481-1.675-0.544-2.95-1.831-3.438-3.487-0.15-0.5-0.175-0.694-0.2-1.775l-0.038-1.206 0.169 0.106c0.156 0.1 0.162 0.137 0.162 0.619zM18.125 18.256c0 0.238-0.056 0.312-1.038 1.406-0.569 0.631-1.063 1.15-1.087 1.15s-0.519-0.519-1.087-1.15c-0.931-1.038-1.037-1.175-1.037-1.375 0-0.125 0.006-0.225 0.019-0.225 0.006 0 0.225 0.056 0.481 0.131 0.956 0.256 2.575 0.212 3.406-0.094 0.35-0.125 0.344-0.131 0.344 0.156zM14.306 20.388c0.519 0.575 0.944 1.069 0.944 1.1 0 0.050-0.875 0.725-1.162 0.9-0.050 0.038-0.294-0.35-0.769-1.231-0.381-0.706-0.694-1.306-0.694-1.331 0.006-0.056 0.644-0.513 0.7-0.494 0.019 0.006 0.463 0.481 0.981 1.056zM19.031 19.544c0.188 0.131 0.337 0.256 0.344 0.287 0 0.025-0.312 0.619-0.694 1.325-0.481 0.881-0.719 1.269-0.769 1.231-0.45-0.269-1.162-0.856-1.137-0.931 0.031-0.081 1.856-2.144 1.9-2.144 0.012 0 0.175 0.106 0.356 0.231zM16.262 22.35c0.262 0.188 0.269 0.2 0.163 0.431-0.063 0.137-0.106 0.156-0.425 0.156s-0.363-0.019-0.425-0.156c-0.044-0.088-0.075-0.188-0.075-0.212 0-0.044 0.437-0.381 0.494-0.381 0.019 0 0.137 0.075 0.269 0.163zM14.806 23.294c0.044 0.113 0.050 0.244 0.019 0.362l-0.056 0.188-0.137-0.269c-0.106-0.212-0.125-0.294-0.063-0.362 0.106-0.125 0.156-0.106 0.238 0.081zM17.431 23.213c0.056 0.069 0.050 0.137-0.038 0.312-0.056 0.125-0.125 0.225-0.15 0.225-0.088 0-0.119-0.306-0.044-0.462 0.081-0.188 0.131-0.2 0.231-0.075zM16.456 24.45l0.163 0.506-0.294 0.556c-0.163 0.3-0.306 0.55-0.325 0.55s-0.162-0.25-0.325-0.55l-0.294-0.556 0.162-0.506 0.169-0.513h0.575l0.169 0.513z"></path>
</symbol>
<symbol id="icon-player" viewBox="0 0 32 32">
<path d="M2.706 2.935c-1.152 0.293-2.039 1.187-2.32 2.32l-0.005 0.022c-0.102 0.45-0.102 20.988 0 21.446 0.297 1.18 1.226 2.086 2.397 2.346l0.021 0.004c0.467 0.102 26.545 0.102 27.012 0 1.192-0.264 2.12-1.169 2.413-2.328l0.005-0.022c0.102-0.458 0.102-20.997 0-21.446-0.295-1.184-1.224-2.093-2.397-2.354l-0.021-0.004c-0.221-0.051-2.002-0.068-5.608-0.068h-5.285l-0.212 0.212c-0.28 0.263-0.28 0.509-0.034 0.772l0.178 0.204 5.404 0.034c5.311 0.025 5.396 0.025 5.684 0.153 0.407 0.195 0.704 0.475 0.908 0.865l0.17 0.348 0.034 15.186h-29.489l0.008-7.593 0.025-7.593 0.17-0.339c0.204-0.399 0.509-0.679 0.916-0.874 0.28-0.127 0.365-0.127 5.659-0.153 2.952-0.025 5.43-0.059 5.489-0.085 0.127-0.068 0.288-0.348 0.288-0.526 0-0.204-0.161-0.458-0.339-0.534-0.238-0.11-10.613-0.093-11.071 0.009zM31.041 24.195l-0.025 2.358-0.17 0.348c-0.204 0.39-0.509 0.679-0.916 0.865l-0.288 0.127h-26.672l-0.356-0.17c-0.393-0.188-0.703-0.498-0.886-0.88l-0.005-0.011c-0.127-0.263-0.127-0.39-0.153-2.638l-0.017-2.358h29.506l-0.025 2.358z"></path>
<path d="M5.955 23.169c-0.741 0.23-1.27 0.91-1.27 1.713 0 0.72 0.425 1.341 1.038 1.625l0.011 0.005c0.458 0.212 1.137 0.238 1.578 0.034 0.848-0.373 1.289-1.306 1.035-2.163-0.254-0.766-0.963-1.308-1.8-1.308-0.212 0-0.416 0.035-0.606 0.099l0.013-0.004zM6.973 24.484c0.153 0.144 0.212 0.255 0.212 0.399 0 0.255-0.348 0.611-0.594 0.611-0.653 0-0.899-0.831-0.339-1.137 0.263-0.136 0.492-0.102 0.721 0.127zM11.436 24.356c-0.416 0.229-0.407 0.874 0.025 1.060 0.127 0.059 2.070 0.076 8.068 0.076 6.719 0 7.932-0.017 8.076-0.085 0.191-0.101 0.318-0.299 0.318-0.526s-0.128-0.425-0.315-0.524l-0.003-0.002c-0.255-0.119-15.932-0.127-16.17 0zM15.89 3.063c-0.288 0.28-0.288 0.518 0 0.797 0.229 0.221 0.424 0.255 0.696 0.136 0.424-0.187 0.441-0.848 0.025-1.060-0.28-0.136-0.484-0.102-0.721 0.127zM14.32 8.874c-0.422 0.136-0.764 0.419-0.971 0.789l-0.004 0.009-0.195 0.339-0.017 2.197c-0.017 1.366 0 2.291 0.042 2.435 0.17 0.602 0.713 1.103 1.357 1.239 0.568 0.119 0.874 0.025 2.104-0.662 0.594-0.339 1.408-0.797 1.824-1.018 1.154-0.653 1.468-1.052 1.468-1.858 0-0.814-0.314-1.205-1.527-1.875l-1.782-1.010c-1.323-0.738-1.629-0.823-2.299-0.594zM16.704 10.918c0.933 0.518 1.756 1.010 1.841 1.077 0.085 0.085 0.136 0.195 0.136 0.348s-0.042 0.263-0.136 0.348c-0.238 0.212-3.521 2.036-3.665 2.036-0.068 0-0.212-0.085-0.314-0.17l-0.195-0.153v-4.115l0.195-0.161c0.102-0.085 0.246-0.153 0.314-0.153 0.076 0 0.891 0.424 1.824 0.942z"></path>
</symbol>
</defs>
</svg>
