<svg aria-hidden="true" style="position: absolute; width: 0; height: 0; overflow: hidden;" version="1.1" xmlns="http://www.w3.org/2000/svg" xmlns:xlink="http://www.w3.org/1999/xlink">
<defs>
<symbol id="icon-booklogo" viewBox="0 0 43 32">
<path d="M8.694 1.344c-1.453 0.090-2.807 0.301-4.116 0.625l0.156-0.033c-0.952 0.242-1.078 0.392-1.12 1.287l-0.033 0.618h-1.519c-1.621 0-1.739 0.033-1.963 0.476-0.142 0.275-0.125 26.89 0.017 27.172 0.058 0.118 0.242 0.277 0.409 0.36l0.309 0.15 1.070-0.459c5.663-2.414 11.911-2.941 18.335-1.554l1.145 0.25 1.11-0.242c1.189-0.272 2.664-0.511 4.164-0.663l0.163-0.013c1.921-0.167 5.43-0.067 7.093 0.217 2.781 0.459 4.845 1.060 7.033 2.022 1.069 0.476 1.287 0.484 1.621 0.083l0.209-0.25v-13.44c0-14.627 0.025-13.792-0.459-14.010-0.142-0.065-0.736-0.099-1.713-0.099h-1.504v-0.634c0-0.71-0.075-0.903-0.401-1.070-0.601-0.301-2.874-0.685-4.786-0.793-4.863-0.292-8.914 0.902-11.896 3.492l-0.659 0.576-0.602-0.561c-1.77-1.651-4.352-2.831-7.258-3.299-0.785-0.125-3.007-0.309-3.466-0.284-0.117 0-0.718 0.033-1.336 0.075zM13.313 3.249c2.773 0.526 4.845 1.519 6.532 3.115l0.71 0.668v10.31c0 5.671-0.017 10.307-0.042 10.307-0.154-0.071-0.286-0.146-0.41-0.231l0.009 0.006c-1.369-0.87-3.726-1.663-5.997-2.022-2.541-0.409-4.828-0.442-8.195-0.125l-0.653 0.058v-21.802l0.694-0.134c0.56-0.112 1.349-0.233 2.147-0.328l0.167-0.016c0.159-0.017 1.16-0.025 2.212-0.008 1.512 0.018 2.115 0.068 2.824 0.202zM35.725 3.207c0.511 0.075 1.112 0.184 1.337 0.242l0.409 0.1 0.025 10.893 0.017 10.893-0.643-0.058c-1.905-0.175-2.616-0.217-3.918-0.217-3.834 0-7.208 0.726-9.864 2.129l-0.861 0.452v-20.6l0.568-0.559c1.948-1.913 4.227-2.89 7.994-3.425 0.593-0.083 4.060 0.026 4.936 0.152zM3.683 16.063v10.55l0.175 0.192c0.267 0.284 0.501 0.342 1.094 0.25 1.252-0.184 3.409-0.327 4.953-0.327 2.297 0 4.227 0.25 6.056 0.786l0.71 0.209-0.793-0.058c-1.252-0.092-4.878-0.058-5.889 0.050-2.598 0.301-5.395 0.977-7.743 1.878l-0.568 0.218v-24.299h2.003v10.55zM41.105 17.665v12.146l-0.559-0.217c-2.536-0.982-5.476-1.675-8.538-1.946l-0.124-0.009c-1.145-0.092-4.302-0.058-5.397 0.050-0.317 0.033-0.267 0.008 0.292-0.167 0.936-0.284 2.581-0.601 3.759-0.718 1.252-0.125 4.953-0.050 6.349 0.125 1.194 0.159 1.663 0.167 1.896 0.042 0.409-0.217 0.401 0.083 0.401-11.061v-10.397h1.921v12.153z"></path>
</symbol>
<symbol id="icon-cart" viewBox="0 0 29 32">
<path d="M12.573 0.121c-3.667 0.46-6.464 3.469-6.464 6.969v0.751l-1.366 0.030c-1.309 0.022-1.396 0.029-1.79 0.219-0.822 0.378-1.419 1.12-1.59 2.014l-0.003 0.017c-0.123 0.744-1.401 19.059-1.357 19.496 0.088 0.893 0.832 1.863 1.709 2.213l0.416 0.168h22.718l0.416-0.168c0.876-0.35 1.622-1.322 1.709-2.213 0.044-0.438-1.235-18.745-1.359-19.49-0.049-0.285-0.13-0.54-0.242-0.778l0.008 0.018c-0.241-0.488-0.817-1.031-1.32-1.263-0.438-0.205-0.497-0.212-1.819-0.236l-1.374-0.029v-0.589c-0.007-1.768-0.803-3.633-2.119-4.955-1.148-1.189-2.694-1.987-4.424-2.18l-0.033-0.003c-0.251-0.038-0.541-0.060-0.835-0.060-0.311 0-0.616 0.024-0.914 0.071l0.033-0.004zM14.764 2.568c2.129 0.539 3.763 2.607 3.763 4.755v0.534h-10.080v-0.534c0-0.298 0.066-0.788 0.138-1.088 0.574-2.217 2.556-3.827 4.915-3.827 0.45 0 0.886 0.059 1.302 0.169l-0.035-0.008zM6.144 13.277l-0.051 3.091 0.168 0.249c0.248 0.357 0.51 0.525 0.884 0.569 0.423 0.051 0.861-0.168 1.088-0.541l0.175-0.278 0.022-3.091 0.022-3.082h10.067l0.022 3.082 0.022 3.091 0.175 0.278c0.204 0.329 0.564 0.545 0.973 0.545 0.040 0 0.080-0.002 0.12-0.006l-0.005 0c0.365-0.034 0.635-0.211 0.876-0.561 0.162-0.241 0.162-0.249 0.162-3.331v-3.097h1.132c1.090 0 1.133 0.007 1.235 0.16 0.081 0.125 0.269 2.484 0.775 9.622l0.674 9.46-0.162 0.131c-0.153 0.123-0.657 0.131-11.032 0.131-10.373 0-10.877-0.008-11.030-0.131l-0.16-0.131 0.672-9.46c0.504-7.138 0.694-9.497 0.775-9.622 0.101-0.152 0.138-0.16 1.277-0.16h1.177l-0.051 3.082z"></path>
</symbol>
<symbol id="icon-arrow" viewBox="0 0 32 32">
<path d="M16 20l-5.657-5.657 1.887-1.885 3.77 3.772 3.77-3.772 1.887 1.885-5.657 5.657z"></path>
</symbol>
<symbol id="icon-search" viewBox="0 0 32 32">
<path d="M12.058 0.070c-3.212 0.341-6.040 1.765-8.16 3.894l-0 0c-1.536 1.539-2.576 3.214-3.237 5.227-0.419 1.213-0.661 2.61-0.661 4.064s0.242 2.851 0.688 4.154l-0.027-0.090c0.676 2.059 1.793 3.816 3.245 5.229l0.003 0.003c3.050 3.034 7.205 4.41 11.491 3.803 2.343-0.346 4.43-1.242 6.19-2.552l-0.036 0.026c0.187-0.144 0.357-0.25 0.382-0.243 0.024 0.013 1.917 1.862 4.205 4.112 2.605 2.565 4.248 4.134 4.398 4.203 0.127 0.062 0.275 0.098 0.433 0.098 0.5 0 0.915-0.366 0.991-0.844l0.001-0.006c0.101-0.523 0.45-0.149-6.398-6.912l-2.136-2.115 0.362-0.424c1.562-1.808 2.592-4.096 2.987-6.597 0.15-0.976 0.15-2.763 0-3.752-0.443-2.869-1.699-5.333-3.792-7.414-2.447-2.432-5.82-3.935-9.544-3.935-0.488 0-0.969 0.026-1.443 0.076l0.059-0.005zM15.050 2.165c2.525 0.368 4.742 1.469 6.498 3.219 2.15 2.158 3.269 4.84 3.269 7.872 0 1.12-0.101 1.888-0.363 2.858-1.325 4.928-5.816 8.334-10.99 8.334-3.080 0-5.941-1.168-8.078-3.307-1.378-1.359-2.403-3.073-2.926-4.994l-0.018-0.078c-0.461-1.731-0.461-3.894 0-5.626 1.085-3.93 4.133-6.957 7.996-7.993l0.079-0.018c1.424-0.368 3.168-0.475 4.536-0.269z"></path>
</symbol>
<symbol id="icon-price" viewBox="0 0 32 32">
<path  d="M23.156 3.119c-0.8 0.294-0.862 0.344-4.137 3.3-2.25 2.025-2.525 2.3-2.681 2.625l-0.181 0.363-0.019 3.013-0.019 3.019h-3.169l0.213-0.594c0.581-1.625 0.619-3.331 0.106-4.381-0.262-0.544-0.7-0.988-1.238-1.25-0.519-0.256-0.9-0.306-1.075-0.137-0.063 0.069-0.244 0.675-0.463 1.544-0.2 0.813-0.438 1.619-0.55 1.85-0.256 0.556-0.719 1-1.769 1.706-0.931 0.631-1.206 0.9-1.787 1.75-0.444 0.644-0.725 0.919-1.056 1.006-0.431 0.119-0.5 0.1-0.537-0.188-0.050-0.356-0.3-0.706-0.619-0.863-0.256-0.125-0.375-0.131-1.756-0.131-1.825 0-2.025 0.056-2.3 0.656-0.113 0.238-0.119 0.556-0.119 5.981 0 3.9 0.019 5.787 0.069 5.906 0.081 0.212 0.344 0.5 0.569 0.619 0.244 0.125 3.294 0.125 3.537 0 0.4-0.212 0.638-0.65 0.638-1.188v-0.344l0.425 0.163c0.894 0.344 2.125 0.712 2.819 0.85 0.7 0.131 0.85 0.137 4.756 0.137 2.875 0 4.087-0.019 4.225-0.069 0.15-0.056 0.269-0.056 0.531 0.012 0.281 0.075 1.375 0.088 6.65 0.075l6.313-0.019 0.331-0.15c0.2-0.088 0.444-0.275 0.631-0.475 0.55-0.606 0.512 0.181 0.494-9.781-0.019-9.706 0.012-8.944-0.406-9.444-0.188-0.225-4.819-4.4-5.425-4.9-0.206-0.163-0.587-0.4-0.844-0.525-0.438-0.212-0.513-0.225-1.156-0.237-0.538-0.013-0.756 0.006-1 0.1zM24.906 4.175c0.469 0.225 0.6 0.331 3.5 2.944 1.306 1.175 2.425 2.225 2.488 2.338 0.1 0.188 0.106 0.725 0.106 8.794 0 8.262-0.006 8.606-0.119 8.812-0.063 0.119-0.212 0.275-0.325 0.344-0.206 0.125-0.338 0.125-6.256 0.144-3.544 0.006-6.050-0.006-6.050-0.044 0-0.031 0.044-0.163 0.1-0.294 0.156-0.356 0.144-1.044-0.025-1.419-0.125-0.287-0.125-0.294-0.013-0.294 0.225 0 0.756-0.238 1.031-0.469 0.181-0.144 0.35-0.369 0.481-0.644 0.181-0.356 0.206-0.481 0.206-0.887s-0.031-0.531-0.2-0.869l-0.194-0.4 0.294-0.287c0.781-0.769 0.844-1.963 0.137-2.769-0.137-0.15-0.344-0.325-0.469-0.394s-0.219-0.137-0.206-0.156c0.244-0.413 0.325-0.694 0.325-1.156 0-0.425-0.025-0.556-0.175-0.856-0.212-0.438-0.688-0.875-1.094-1.019-0.163-0.056-0.525-0.119-0.806-0.137l-0.519-0.038v-2.844c0-2.75 0.006-2.856 0.131-3.1 0.088-0.181 0.813-0.869 2.531-2.413 2.881-2.587 2.956-2.65 3.431-2.881 0.531-0.256 1.15-0.256 1.688-0.006zM12.019 10.413c0.481 0.475 0.637 1.050 0.588 2.15-0.050 1.112-0.419 2.362-0.881 2.963-0.081 0.106-0.162 0.256-0.188 0.331-0.056 0.181 0.113 0.506 0.294 0.55 0.075 0.019 1.5 0.038 3.169 0.050l3.031 0.013 0.231 0.144c0.25 0.156 0.488 0.569 0.488 0.856s-0.238 0.7-0.488 0.856c-0.225 0.144-0.262 0.144-2.45 0.163-2.162 0.019-2.219 0.025-2.356 0.15-0.144 0.131-0.181 0.375-0.106 0.581 0.106 0.269 0.263 0.281 2.95 0.281 2.556 0 2.556 0 2.769 0.144 0.363 0.244 0.506 0.525 0.481 0.906-0.031 0.35-0.156 0.569-0.45 0.788-0.163 0.125-0.269 0.131-2.863 0.163l-2.687 0.031-0.119 0.15c-0.162 0.2-0.15 0.481 0.037 0.663l0.15 0.156h2.331c2.294 0 2.337 0.006 2.581 0.144 0.337 0.188 0.55 0.594 0.512 0.975-0.031 0.306-0.181 0.538-0.481 0.737-0.206 0.144-0.225 0.144-2.513 0.144-2.419 0-2.594 0.019-2.7 0.281-0.075 0.2-0.037 0.431 0.1 0.575 0.131 0.144 0.15 0.144 1.637 0.144 1.331 0 1.538 0.019 1.763 0.119 0.844 0.381 0.806 1.519-0.062 1.85-0.244 0.094-0.656 0.1-4.169 0.075-3.894-0.025-3.9-0.025-4.619-0.181-0.394-0.088-1.056-0.275-1.469-0.425-0.412-0.144-0.969-0.338-1.231-0.431l-0.487-0.162v-8.319l0.431-0.063c0.819-0.131 1.219-0.412 1.856-1.319 0.612-0.875 0.838-1.094 1.65-1.65 0.956-0.65 1.381-1.012 1.719-1.463 0.387-0.519 0.613-1.1 0.919-2.337 0.281-1.163 0.269-1.144 0.631-0.781zM3.8 22.388l0.013 5.613h-2.813v-5.581c0-3.075 0.019-5.606 0.044-5.631 0.025-0.019 0.65-0.031 1.387-0.025l1.35 0.019 0.019 5.606z"></path>
<path  d="M23.412 6.25c-0.4 0.156-0.806 0.556-0.981 0.963-0.194 0.463-0.15 1.163 0.106 1.581 0.775 1.25 2.569 1.125 3.169-0.225 0.35-0.8-0.044-1.856-0.856-2.269-0.369-0.194-1.038-0.213-1.438-0.050zM24.481 7.25c0.281 0.169 0.362 0.35 0.337 0.794-0.012 0.219-0.356 0.569-0.606 0.619-0.444 0.081-0.9-0.287-0.9-0.731 0-0.656 0.625-1.019 1.169-0.681z"></path>
<path  d="M23.694 13.725c-0.1 0.131-0.131 0.256-0.131 0.556v0.394l-0.288 0.069c-0.75 0.188-1.45 0.75-1.75 1.4-0.156 0.331-0.181 0.469-0.181 0.919 0 0.444 0.025 0.587 0.163 0.881 0.375 0.8 1.119 1.244 2.544 1.525 1.413 0.281 2.013 0.744 2.013 1.556 0 0.675-0.556 1.144-1.525 1.281-1.15 0.162-2.163-0.325-2.444-1.188-0.119-0.35-0.287-0.494-0.569-0.494-0.287 0-0.488 0.262-0.444 0.581 0.050 0.381 0.35 0.894 0.731 1.256 0.394 0.375 0.806 0.606 1.369 0.763l0.381 0.106v0.4c0 0.344 0.025 0.425 0.156 0.55 0.212 0.219 0.538 0.212 0.712-0.006 0.1-0.131 0.131-0.256 0.131-0.55v-0.388l0.45-0.106c0.869-0.2 1.494-0.625 1.831-1.238 0.175-0.312 0.188-0.387 0.188-0.962 0-0.512-0.025-0.681-0.137-0.919-0.212-0.462-0.656-0.894-1.206-1.169-0.45-0.225-0.731-0.306-1.813-0.538-0.6-0.125-1.094-0.375-1.337-0.675-0.175-0.219-0.194-0.287-0.194-0.669 0-0.587 0.2-0.881 0.812-1.188 0.388-0.194 0.488-0.219 0.938-0.219 0.8 0.006 1.294 0.287 1.75 0.994 0.119 0.188 0.281 0.375 0.35 0.419 0.269 0.137 0.681-0.113 0.681-0.413 0-0.25-0.294-0.769-0.637-1.137-0.337-0.35-0.844-0.644-1.356-0.775l-0.319-0.081v-0.413c0-0.356-0.019-0.437-0.144-0.55-0.212-0.2-0.556-0.188-0.725 0.025z"></path>
</symbol>
<symbol id="icon-support" viewBox="0 0 32 32">
<path  d="M16.344 0.069c-4.756 0.481-8.912 3.275-11.2 7.525l-0.3 0.563h-0.406c-0.769 0-0.856 0.063-2.544 1.738-1.9 1.887-1.863 1.825-1.863 3.231 0.006 1.037 0.087 1.625 0.388 2.656 0.244 0.856 0.7 1.962 0.844 2.038 0.206 0.106 0.494 0.044 0.637-0.15l0.131-0.175-0.15-0.388c-0.65-1.706-0.863-2.55-0.925-3.675-0.063-1.25-0.113-1.162 1.5-2.787 0.756-0.763 1.475-1.438 1.594-1.494 0.281-0.131 0.756-0.081 1.019 0.106 0.106 0.075 0.825 0.981 1.6 2.012 1.075 1.431 1.412 1.925 1.412 2.063 0 0.144-0.175 0.356-1 1.187-0.556 0.556-1.037 1.075-1.081 1.156-0.037 0.081-0.069 0.287-0.075 0.456 0 0.269 0.044 0.387 0.294 0.794 1.631 2.637 4.269 5.506 6.95 7.525 0.606 0.463 1.975 1.394 2.262 1.544 0.181 0.1 0.706 0.1 0.894 0.006 0.081-0.044 0.6-0.525 1.156-1.081 0.831-0.825 1.044-1 1.187-1 0.137 0 0.631 0.337 2.069 1.419 1.131 0.844 1.944 1.5 2.012 1.619 0.175 0.281 0.219 0.575 0.131 0.875-0.063 0.219-0.319 0.506-1.494 1.675-1.663 1.656-1.563 1.606-2.819 1.538-1.238-0.069-2.475-0.4-3.938-1.063-2.331-1.056-5.388-3.225-7.444-5.294-1.344-1.35-3.094-3.606-4.144-5.35-0.131-0.212-0.275-0.406-0.331-0.425-0.313-0.119-0.65 0.1-0.65 0.425 0 0.463 2.006 3.294 3.631 5.131 1.962 2.219 5.063 4.606 7.813 6.019 2.656 1.363 5.544 1.887 6.837 1.25 0.144-0.075 0.869-0.744 1.731-1.6 1.675-1.662 1.756-1.781 1.762-2.544l0.006-0.438 0.563-0.3c4.069-2.194 6.725-5.969 7.45-10.575 0.131-0.856 0.15-3.044 0.031-3.875-0.269-1.888-0.894-3.719-1.781-5.244-0.756-1.3-1.688-2.475-1.962-2.475-0.075 0-0.212 0.069-0.306 0.144-0.281 0.244-0.238 0.444 0.256 1.050 1.362 1.669 2.35 3.812 2.744 5.956 0.7 3.775-0.3 7.725-2.712 10.756-1.087 1.362-2.756 2.731-4.2 3.444l-0.481 0.238-0.269-0.25c-0.15-0.131-0.363-0.312-0.481-0.4l-0.206-0.156 0.644-0.325c1.256-0.625 2.287-1.381 3.312-2.431 1.7-1.75 2.694-3.644 3.225-6.131 0.162-0.75 0.169-0.9 0.169-2.331s-0.006-1.581-0.169-2.344c-0.431-2.025-1.25-3.781-2.469-5.287-0.519-0.638-1.688-1.756-2.319-2.206-1.481-1.056-3.25-1.813-5.038-2.138-0.75-0.138-2.725-0.188-3.519-0.087-2.3 0.281-4.431 1.181-6.219 2.619-0.262 0.219-0.513 0.444-0.544 0.506-0.106 0.194-0.069 0.406 0.081 0.55 0.244 0.225 0.419 0.175 0.994-0.281 1.687-1.344 3.481-2.131 5.55-2.431 0.994-0.144 2.756-0.094 3.712 0.094 1.488 0.3 3.175 1.025 4.344 1.863 2.544 1.831 4.256 4.694 4.631 7.769 0.081 0.681 0.081 2.069 0 2.75-0.219 1.769-0.944 3.65-1.988 5.125-0.538 0.763-1.875 2.1-2.637 2.637-0.613 0.431-1.619 0.988-2.287 1.256l-0.381 0.15-1.106-0.825c-0.606-0.456-1.194-0.869-1.3-0.913-0.263-0.106-0.775-0.1-1.063 0.025-0.144 0.063-0.587 0.463-1.181 1.069-0.525 0.538-0.994 0.975-1.056 0.975-0.056 0-0.425-0.212-0.819-0.481-2.994-2-5.681-4.675-7.662-7.644-0.244-0.363-0.469-0.719-0.506-0.788-0.063-0.125 0.019-0.225 0.931-1.119 0.625-0.606 1.044-1.069 1.1-1.206 0.125-0.288 0.131-0.8 0.025-1.063-0.044-0.106-0.456-0.694-0.913-1.306l-0.831-1.106 0.125-0.319c0.237-0.6 0.869-1.756 1.269-2.312 0.469-0.65 0.519-0.875 0.244-1.087-0.225-0.175-0.412-0.162-0.619 0.037-0.281 0.287-1.006 1.412-1.356 2.119l-0.331 0.663-0.156-0.206c-0.088-0.119-0.269-0.331-0.4-0.481l-0.25-0.269 0.237-0.481c0.513-1.037 1.4-2.25 2.35-3.206 3.681-3.7 9.2-4.912 14.106-3.081 1.181 0.438 2.65 1.269 3.581 2.019 0.219 0.175 0.469 0.338 0.55 0.362 0.325 0.081 0.625-0.237 0.538-0.575-0.069-0.288-1.55-1.344-2.775-1.988-1.306-0.688-2.925-1.212-4.438-1.45-0.781-0.119-2.744-0.169-3.531-0.087z"></path>
<path  d="M11.719 11.144c-0.563 0.188-0.906 0.475-1.15 0.969-0.2 0.394-0.194 0.687 0.019 0.869 0.094 0.075 0.219 0.144 0.281 0.144 0.188 0 0.419-0.225 0.5-0.494 0.075-0.256 0.338-0.512 0.619-0.6 0.387-0.119 0.956 0.219 1.069 0.637 0.125 0.444-0.119 0.888-1.619 2.925-0.444 0.606-0.825 1.15-0.844 1.213-0.062 0.2 0.081 0.444 0.319 0.544 0.181 0.075 0.494 0.088 1.663 0.075 1.425-0.019 1.438-0.019 1.556-0.169 0.156-0.188 0.15-0.45-0.006-0.619-0.125-0.131-0.181-0.137-1.156-0.137h-1.025l0.819-1.144c0.856-1.187 1.137-1.688 1.231-2.188 0.144-0.769-0.312-1.612-1.037-1.931-0.356-0.156-0.913-0.2-1.238-0.094z"></path>
<path d="M16.65 11.244c-0.244 0.15-0.413 0.369-0.875 1.162-0.887 1.525-1.587 2.825-1.587 2.956 0 0.081 0.069 0.213 0.156 0.294 0.15 0.156 0.162 0.156 1.312 0.156h1.156v0.563c0 0.594 0.087 0.887 0.281 0.962 0.2 0.075 0.388 0.037 0.519-0.106 0.112-0.119 0.137-0.225 0.15-0.762l0.019-0.619 0.206-0.044c0.294-0.056 0.45-0.225 0.45-0.469 0-0.256-0.2-0.463-0.45-0.463h-0.175v-1.456c0-0.794-0.031-1.556-0.063-1.681-0.087-0.306-0.444-0.613-0.706-0.613-0.112 0-0.287 0.056-0.394 0.119zM16.875 13.687v1.188h-0.687c-0.375 0-0.687-0.019-0.687-0.044 0-0.088 1.294-2.331 1.344-2.331 0.019 0 0.031 0.531 0.031 1.187z"></path>
<path  d="M21.394 11.219c-0.094 0.062-0.469 0.944-1.231 2.862-0.606 1.525-1.1 2.831-1.1 2.913 0 0.181 0.269 0.444 0.456 0.444 0.087 0 0.212-0.050 0.281-0.113 0.137-0.112 2.325-5.55 2.325-5.769 0-0.169-0.275-0.431-0.45-0.431-0.081 0-0.206 0.044-0.281 0.094z"></path>
<path  d="M23.156 11.281c-0.188 0.181-0.2 0.4-0.037 0.6 0.119 0.144 0.15 0.15 1.337 0.181l1.213 0.031-1.019 2.313c-0.619 1.4-1.019 2.394-1.025 2.512 0 0.369 0.419 0.594 0.706 0.375 0.125-0.087 2.544-5.544 2.544-5.738 0-0.069-0.069-0.194-0.156-0.275l-0.15-0.156h-3.263l-0.15 0.156z"></path>
</symbol>
<symbol id="icon-teacher" viewBox="0 0 32 32">
<path  d="M15.125 0.044c-0.863 0.087-2 0.425-2.813 0.831-0.5 0.25-1.394 0.863-1.575 1.075-0.15 0.169-0.144 0.456 0.013 0.613 0.213 0.212 0.462 0.163 0.969-0.212 0.95-0.688 2.063-1.15 3.219-1.325 0.762-0.113 1.294-0.113 2.112 0.012 1.581 0.231 2.806 0.837 3.888 1.913 0.256 0.256 0.556 0.512 0.663 0.569 0.294 0.15 0.744 0.688 0.95 1.125 0.319 0.688 0.388 1.219 0.388 3.144v1.725l-0.137-0.037c-0.081-0.025-0.262-0.063-0.4-0.081l-0.262-0.031-0.025-0.856c-0.019-0.525-0.063-0.912-0.113-1.019-0.081-0.175-0.506-0.425-0.725-0.425-0.362 0-0.925-0.419-1.363-1.019-0.212-0.287-0.456-0.419-0.787-0.419-0.306 0-0.394 0.044-0.969 0.475-1.512 1.125-3.325 1.6-5.362 1.406-0.463-0.044-0.969-0.063-1.119-0.037-0.856 0.144-1.587 0.787-1.831 1.613-0.069 0.238-0.1 0.269-0.319 0.3-0.131 0.019-0.338 0.056-0.444 0.081l-0.206 0.050v-0.9c0-1.806 0.262-2.956 0.944-4.125 0.137-0.237 0.244-0.5 0.244-0.606 0-0.4-0.481-0.594-0.769-0.306-0.219 0.225-0.762 1.331-0.975 2-0.281 0.881-0.381 1.813-0.381 3.463 0 0.963-0.025 1.45-0.075 1.544-0.037 0.075-0.075 0.306-0.075 0.512 0 0.906 0.694 1.65 1.65 1.762 0.331 0.038 0.337 0.050 0.406 0.488 0.063 0.4 0.338 1.206 0.544 1.619 0.475 0.95 1.231 1.806 2.113 2.394l0.438 0.287v0.787l-0.575 0.4c-0.556 0.388-0.669 0.431-2.613 1.106-1.119 0.388-2.169 0.775-2.344 0.869-0.469 0.25-0.981 0.794-1.244 1.325-0.206 0.419-0.3 0.825-0.95 4.056-0.65 3.25-0.719 3.644-0.694 4.125 0.031 0.8 0.294 1.213 0.95 1.513l0.313 0.144 13.656 0.031 0.156-0.15c0.2-0.2 0.2-0.438 0-0.631l-0.15-0.156h-9.756v-2.212c0-2.137-0.006-2.212-0.131-2.375-0.169-0.212-0.444-0.219-0.65-0.006l-0.156 0.15v4.444l-1.325-0.006c-0.906 0-1.4-0.031-1.55-0.081-0.294-0.106-0.45-0.387-0.444-0.806 0-0.287 1.288-6.837 1.431-7.331 0.15-0.481 0.513-0.938 0.931-1.163 0.306-0.169 2.319-0.9 2.356-0.856 0.006 0.012 0.275 0.506 0.594 1.094 0.569 1.050 0.7 1.213 0.981 1.213 0.15 0 0.4-0.294 0.4-0.469 0-0.088-0.238-0.6-0.531-1.131-0.294-0.538-0.531-1-0.531-1.019 0-0.025 0.15-0.094 0.325-0.15 0.262-0.081 0.344-0.088 0.4-0.025 0.037 0.038 0.894 1.6 1.9 3.469 1.075 1.994 1.894 3.444 1.981 3.513 0.231 0.181 0.494 0.163 0.7-0.044 0.087-0.1 0.994-1.7 2-3.569 1.006-1.863 1.856-3.4 1.881-3.419 0.038-0.025 0.613 0.137 0.681 0.194 0.044 0.038-3.781 7.063-3.962 7.269-0.5 0.569-1.4 0.581-1.919 0.031-0.094-0.1-0.556-0.906-1.037-1.794s-0.925-1.669-0.981-1.738c-0.244-0.262-0.781-0.050-0.781 0.319 0 0.244 1.863 3.6 2.169 3.912 0.537 0.531 1.387 0.769 2.137 0.587 0.419-0.1 0.988-0.481 1.231-0.825 0.106-0.15 1.063-1.869 2.119-3.831s1.931-3.575 1.944-3.587c0.038-0.044 2.050 0.687 2.356 0.856 0.312 0.169 0.637 0.513 0.819 0.869 0.113 0.231 0.444 1.775 1.1 5.175 0.506 2.606 0.525 2.888 0.219 3.131-0.244 0.194-0.387 0.212-1.819 0.212h-1.275v-4.444l-0.156-0.15c-0.206-0.212-0.481-0.206-0.65 0.006-0.125 0.163-0.131 0.238-0.131 2.375v2.212h-0.5c-0.456 0-0.519 0.019-0.656 0.156-0.2 0.194-0.2 0.431 0 0.631l0.156 0.156 2.456-0.019c2.406-0.019 2.456-0.019 2.762-0.162 0.656-0.3 0.919-0.713 0.95-1.513 0.025-0.481-0.044-0.869-0.694-4.094-0.394-1.962-0.775-3.719-0.844-3.906-0.162-0.425-0.6-0.994-0.994-1.281-0.387-0.281-0.694-0.406-2.888-1.163-1.75-0.6-1.875-0.656-2.419-1.038l-0.581-0.4v-0.912l0.362-0.238c0.794-0.531 1.55-1.4 2.013-2.331 0.231-0.456 0.506-1.319 0.594-1.844 0.031-0.213 0.050-0.231 0.25-0.231 0.325 0 0.862-0.225 1.169-0.494 0.475-0.425 0.706-1.1 0.544-1.6-0.056-0.175-0.094-0.981-0.119-2.75-0.050-2.825-0.062-2.925-0.531-3.881-0.287-0.581-0.762-1.131-1.231-1.431-0.113-0.075-0.419-0.344-0.681-0.6-1.55-1.512-3.988-2.319-6.306-2.075zM19.412 6.931c0.3 0.425 0.881 0.838 1.381 0.981l0.337 0.1-0.019 0.838-0.019 0.844-0.231 0.131-0.238 0.137-0.169-0.162c-0.331-0.306-0.425-0.325-1.606-0.35-0.613-0.013-1.263-0.006-1.444 0.019-0.381 0.044-0.844 0.319-0.956 0.563-0.069 0.144-0.1 0.156-0.525 0.156-0.45 0-0.456-0.006-0.594-0.219-0.081-0.119-0.262-0.281-0.406-0.356-0.25-0.131-0.362-0.144-1.481-0.162-1.363-0.025-1.662 0.019-2.025 0.312l-0.244 0.188-0.219-0.113c-0.119-0.069-0.238-0.156-0.25-0.2-0.069-0.169 0.119-0.594 0.381-0.85 0.388-0.387 0.65-0.444 1.613-0.35 2.156 0.219 4.337-0.338 5.894-1.5 0.275-0.2 0.513-0.369 0.531-0.369s0.15 0.162 0.287 0.362zM9.75 11.131v0.825l-0.25-0.037c-0.531-0.069-0.9-0.563-0.75-1.006 0.106-0.325 0.481-0.6 0.831-0.6h0.169v0.819zM22.731 10.469c0.194 0.131 0.394 0.456 0.394 0.656s-0.2 0.525-0.394 0.656c-0.088 0.056-0.256 0.119-0.381 0.137l-0.225 0.037v-1.663l0.225 0.038c0.125 0.019 0.294 0.081 0.381 0.137zM14.525 10.475c0.137 0.131 0.144 1.2 0.013 1.456-0.175 0.337-0.325 0.381-1.256 0.381-1.219 0-1.344-0.106-1.344-1.181 0-0.531 0.019-0.637 0.113-0.687 0.063-0.038 0.588-0.069 1.244-0.069 0.95 0 1.15 0.019 1.231 0.1zM19.756 10.438c0.106 0.062 0.119 0.137 0.119 0.756v0.694l-0.425 0.425h-0.85c-0.625 0-0.906-0.025-1.031-0.094-0.275-0.137-0.381-0.437-0.381-1.069 0-0.8-0.044-0.775 1.325-0.775 0.656 0 1.169 0.025 1.244 0.063zM11 11.463c0.006 0.8 0.313 1.325 0.969 1.638 0.287 0.137 0.387 0.15 1.312 0.15 0.869 0 1.037-0.019 1.281-0.131 0.625-0.281 1-0.888 1-1.619v-0.375h0.669l0.031 0.456c0.050 0.756 0.394 1.275 1.031 1.556 0.244 0.106 0.4 0.119 1.319 0.1 1.162-0.019 1.319-0.063 1.719-0.469 0.344-0.344 0.444-0.6 0.469-1.238 0.019-0.425 0.044-0.581 0.125-0.644 0.056-0.038 0.119-0.075 0.15-0.075 0.025 0 0.050 0.469 0.050 1.044 0 0.831-0.025 1.156-0.125 1.562-0.331 1.381-1.225 2.594-2.437 3.306-1.231 0.725-2.888 0.913-4.219 0.481-1.675-0.544-2.95-1.831-3.438-3.487-0.15-0.5-0.175-0.694-0.2-1.775l-0.038-1.206 0.169 0.106c0.156 0.1 0.162 0.137 0.162 0.619zM18.125 18.256c0 0.238-0.056 0.312-1.038 1.406-0.569 0.631-1.063 1.15-1.087 1.15s-0.519-0.519-1.087-1.15c-0.931-1.038-1.037-1.175-1.037-1.375 0-0.125 0.006-0.225 0.019-0.225 0.006 0 0.225 0.056 0.481 0.131 0.956 0.256 2.575 0.212 3.406-0.094 0.35-0.125 0.344-0.131 0.344 0.156zM14.306 20.388c0.519 0.575 0.944 1.069 0.944 1.1 0 0.050-0.875 0.725-1.162 0.9-0.050 0.038-0.294-0.35-0.769-1.231-0.381-0.706-0.694-1.306-0.694-1.331 0.006-0.056 0.644-0.513 0.7-0.494 0.019 0.006 0.463 0.481 0.981 1.056zM19.031 19.544c0.188 0.131 0.337 0.256 0.344 0.287 0 0.025-0.312 0.619-0.694 1.325-0.481 0.881-0.719 1.269-0.769 1.231-0.45-0.269-1.162-0.856-1.137-0.931 0.031-0.081 1.856-2.144 1.9-2.144 0.012 0 0.175 0.106 0.356 0.231zM16.262 22.35c0.262 0.188 0.269 0.2 0.163 0.431-0.063 0.137-0.106 0.156-0.425 0.156s-0.363-0.019-0.425-0.156c-0.044-0.088-0.075-0.188-0.075-0.212 0-0.044 0.437-0.381 0.494-0.381 0.019 0 0.137 0.075 0.269 0.163zM14.806 23.294c0.044 0.113 0.050 0.244 0.019 0.362l-0.056 0.188-0.137-0.269c-0.106-0.212-0.125-0.294-0.063-0.362 0.106-0.125 0.156-0.106 0.238 0.081zM17.431 23.213c0.056 0.069 0.050 0.137-0.038 0.312-0.056 0.125-0.125 0.225-0.15 0.225-0.088 0-0.119-0.306-0.044-0.462 0.081-0.188 0.131-0.2 0.231-0.075zM16.456 24.45l0.163 0.506-0.294 0.556c-0.163 0.3-0.306 0.55-0.325 0.55s-0.162-0.25-0.325-0.55l-0.294-0.556 0.162-0.506 0.169-0.513h0.575l0.169 0.513z"></path>
</symbol>
<symbol id="icon-player" viewBox="0 0 32 32">
<path d="M2.706 2.935c-1.152 0.293-2.039 1.187-2.32 2.32l-0.005 0.022c-0.102 0.45-0.102 20.988 0 21.446 0.297 1.18 1.226 2.086 2.397 2.346l0.021 0.004c0.467 0.102 26.545 0.102 27.012 0 1.192-0.264 2.12-1.169 2.413-2.328l0.005-0.022c0.102-0.458 0.102-20.997 0-21.446-0.295-1.184-1.224-2.093-2.397-2.354l-0.021-0.004c-0.221-0.051-2.002-0.068-5.608-0.068h-5.285l-0.212 0.212c-0.28 0.263-0.28 0.509-0.034 0.772l0.178 0.204 5.404 0.034c5.311 0.025 5.396 0.025 5.684 0.153 0.407 0.195 0.704 0.475 0.908 0.865l0.17 0.348 0.034 15.186h-29.489l0.008-7.593 0.025-7.593 0.17-0.339c0.204-0.399 0.509-0.679 0.916-0.874 0.28-0.127 0.365-0.127 5.659-0.153 2.952-0.025 5.43-0.059 5.489-0.085 0.127-0.068 0.288-0.348 0.288-0.526 0-0.204-0.161-0.458-0.339-0.534-0.238-0.11-10.613-0.093-11.071 0.009zM31.041 24.195l-0.025 2.358-0.17 0.348c-0.204 0.39-0.509 0.679-0.916 0.865l-0.288 0.127h-26.672l-0.356-0.17c-0.393-0.188-0.703-0.498-0.886-0.88l-0.005-0.011c-0.127-0.263-0.127-0.39-0.153-2.638l-0.017-2.358h29.506l-0.025 2.358z"></path>
<path d="M5.955 23.169c-0.741 0.23-1.27 0.91-1.27 1.713 0 0.72 0.425 1.341 1.038 1.625l0.011 0.005c0.458 0.212 1.137 0.238 1.578 0.034 0.848-0.373 1.289-1.306 1.035-2.163-0.254-0.766-0.963-1.308-1.8-1.308-0.212 0-0.416 0.035-0.606 0.099l0.013-0.004zM6.973 24.484c0.153 0.144 0.212 0.255 0.212 0.399 0 0.255-0.348 0.611-0.594 0.611-0.653 0-0.899-0.831-0.339-1.137 0.263-0.136 0.492-0.102 0.721 0.127zM11.436 24.356c-0.416 0.229-0.407 0.874 0.025 1.060 0.127 0.059 2.070 0.076 8.068 0.076 6.719 0 7.932-0.017 8.076-0.085 0.191-0.101 0.318-0.299 0.318-0.526s-0.128-0.425-0.315-0.524l-0.003-0.002c-0.255-0.119-15.932-0.127-16.17 0zM15.89 3.063c-0.288 0.28-0.288 0.518 0 0.797 0.229 0.221 0.424 0.255 0.696 0.136 0.424-0.187 0.441-0.848 0.025-1.060-0.28-0.136-0.484-0.102-0.721 0.127zM14.32 8.874c-0.422 0.136-0.764 0.419-0.971 0.789l-0.004 0.009-0.195 0.339-0.017 2.197c-0.017 1.366 0 2.291 0.042 2.435 0.17 0.602 0.713 1.103 1.357 1.239 0.568 0.119 0.874 0.025 2.104-0.662 0.594-0.339 1.408-0.797 1.824-1.018 1.154-0.653 1.468-1.052 1.468-1.858 0-0.814-0.314-1.205-1.527-1.875l-1.782-1.010c-1.323-0.738-1.629-0.823-2.299-0.594zM16.704 10.918c0.933 0.518 1.756 1.010 1.841 1.077 0.085 0.085 0.136 0.195 0.136 0.348s-0.042 0.263-0.136 0.348c-0.238 0.212-3.521 2.036-3.665 2.036-0.068 0-0.212-0.085-0.314-0.17l-0.195-0.153v-4.115l0.195-0.161c0.102-0.085 0.246-0.153 0.314-0.153 0.076 0 0.891 0.424 1.824 0.942z"></path>
</symbol>
<symbol id="icon-check-list" viewBox="0 0 32 32">
<path d="M3.584 0.080c-1.135 0.299-2.004 1.195-2.26 2.323l-0.004 0.021c-0.096 0.44-0.104 23.464 0 23.96 0.213 0.921 0.797 1.676 1.584 2.112l0.017 0.008c0.496 0.256 0.736 0.264 0.936 0.032 0.272-0.312 0.144-0.56-0.384-0.8-0.466-0.226-0.836-0.588-1.066-1.035l-0.006-0.013-0.176-0.352v-23.808l0.144-0.304c0.193-0.464 0.542-0.831 0.98-1.043l0.012-0.005 0.424-0.208 8.776-0.008c9.64-0.024 9.104-0.040 9.704 0.36 0.352 0.24 0.592 0.536 0.776 0.992 0.224 0.56 0.48 0.688 0.8 0.432 0.16-0.12 0.176-0.16 0.144-0.432-0.088-0.96-1.168-2-2.28-2.24-0.512-0.104-17.68-0.080-18.12 0.024z"></path>
<path d="M7.44 2.24c-0.456 0.144-0.824 0.464-1.072 0.944-0.136 0.256-0.152 0.36-0.152 1.224 0 0.816 0.024 0.976 0.136 1.216 0.184 0.4 0.432 0.672 0.8 0.864l0.32 0.168h10.432l0.32-0.168c0.368-0.192 0.616-0.456 0.8-0.864 0.112-0.24 0.136-0.4 0.136-1.184 0-0.816-0.024-0.936-0.144-1.224-0.159-0.359-0.426-0.647-0.759-0.828l-0.009-0.005-0.28-0.16-5.184-0.016c-2.856-0.008-5.256 0.008-5.344 0.032zM17.856 3.248c0.32 0.192 0.36 0.32 0.36 1.16 0 0.864-0.072 1.072-0.432 1.24-0.192 0.088-0.704 0.104-5.088 0.104-5.312 0-5.176 0-5.416-0.352-0.096-0.144-0.12-0.32-0.144-0.84-0.024-0.8 0.048-1.088 0.36-1.288l0.208-0.144h4.976c4.824 0 4.984 0 5.176 0.12zM23.352 4.272l-0.16 0.16v16.976l-2.992 3c-1.061 1.040-2.081 2.093-3.073 3.172l-0.055 0.060-0.144 0.24h-5.576c-3.92 0-5.64 0.016-5.784 0.064-0.328 0.12-0.432 0.504-0.192 0.744 0.12 0.128 0.208 0.128 5.656 0.128 3.040 0 5.528 0.016 5.528 0.032 0 0.024-0.080 0.336-0.192 0.704-0.16 0.512-0.184 0.72-0.16 0.976 0.080 0.776 0.672 1.376 1.448 1.456 0.272 0.032 0.504-0.024 1.32-0.264 0.544-0.16 1.16-0.376 1.368-0.488 0.32-0.16 1.12-0.936 5.224-5.040 3.92-3.92 4.88-4.912 5-5.16 0.112-0.248 0.144-0.416 0.144-0.848 0-0.736-0.128-0.984-0.88-1.76-0.8-0.8-1.088-0.96-1.832-0.952-0.824 0-0.928 0.080-2.512 1.648l-1.36 1.344v-8.008c0-7.528-0.008-8.016-0.112-8.136-0.083-0.082-0.189-0.141-0.308-0.167l-0.004-0.001c-0.16-0.032-0.232-0.008-0.352 0.12zM28.424 18.472c0.304 0.128 1.12 0.928 1.272 1.248 0.264 0.576 0.112 0.96-0.736 1.792l-0.616 0.616-2.288-2.288 0.648-0.64c0.848-0.824 1.16-0.96 1.72-0.728zM26.584 21.672l1.104 1.112-1.12 1.12-1.144-1.144-1.144-1.136 0.536-0.528c0.28-0.296 0.56-0.536 0.592-0.536s0.56 0.504 1.176 1.12zM23.176 27.304c-0.936 0.947-1.872 1.867-2.82 2.774l-0.052 0.050-0.16 0.112-1.12-1.12-1.104-1.12 2.84-2.84 2.84-2.848 2.28 2.28-2.696 2.712zM18.704 30.824c-0.776 0.24-0.96 0.272-1.192 0.152-0.2-0.104-0.384-0.384-0.384-0.568 0-0.056 0.080-0.416 0.2-0.792l0.192-0.688 1.728 1.728-0.544 0.168z"></path>
<path d="M22.048 25.48c-0.76 0.76-0.864 0.88-0.864 1.064 0 0.272 0.192 0.456 0.456 0.456 0.184 0 0.312-0.104 1.064-0.864 0.72-0.72 0.856-0.896 0.856-1.056 0-0.232-0.224-0.456-0.464-0.456-0.144 0-0.336 0.16-1.040 0.856zM7.376 9.528l-1.28 1.28-0.456-0.448c-0.36-0.352-0.48-0.44-0.64-0.44-0.264 0-0.44 0.176-0.44 0.448 0 0.192 0.072 0.288 0.68 0.896 0.544 0.552 0.704 0.672 0.856 0.672 0.16 0 0.416-0.232 1.696-1.512 1.368-1.36 1.52-1.536 1.52-1.72 0-0.007 0.001-0.016 0.001-0.024 0-0.239-0.193-0.432-0.432-0.432-0.006 0-0.012 0-0.018 0l0.001-0c-0.176 0-0.352 0.152-1.488 1.28zM11.776 10.080c-0.172 0.063-0.292 0.224-0.292 0.414 0 0.127 0.054 0.241 0.14 0.321l0 0c0.128 0.12 0.208 0.12 4.152 0.12h4.032l0.12-0.16c0.168-0.216 0.16-0.36-0.016-0.568l-0.152-0.176-3.896-0.016c-3.168-0.008-3.936 0-4.088 0.072zM6.328 14.464c-0.56 0.176-1.040 0.616-1.28 1.152-0.088 0.24-0.139 0.518-0.139 0.808 0 0.263 0.042 0.516 0.12 0.753l-0.005-0.017c0.303 0.761 1.032 1.288 1.886 1.288 0.012 0 0.024-0 0.036-0l-0.002 0c0.816 0 1.512-0.44 1.856-1.184 0.24-0.512 0.24-1.208 0-1.704-0.232-0.443-0.59-0.794-1.027-1.010l-0.013-0.006c-0.254-0.093-0.547-0.147-0.853-0.147-0.205 0-0.405 0.024-0.597 0.070l0.017-0.004zM7.44 15.44c1.040 0.52 0.672 2.080-0.496 2.080-0.776 0-1.312-0.768-1.040-1.48 0.157-0.425 0.559-0.723 1.031-0.723 0.185 0 0.359 0.046 0.511 0.126l-0.006-0.003zM11.656 16.096c-0.2 0.192-0.208 0.464-0.016 0.64l0.144 0.136h7.976l0.144-0.16c0.088-0.080 0.16-0.184 0.16-0.24 0-0.168-0.136-0.4-0.296-0.464-0.104-0.048-1.328-0.072-4.056-0.072h-3.904l-0.152 0.16zM6.376 20.368c-0.592 0.207-1.063 0.629-1.33 1.17l-0.006 0.014c-0.096 0.216-0.128 0.416-0.128 0.792s0.032 0.576 0.128 0.8c0.176 0.384 0.6 0.832 0.992 1.032 0.272 0.152 0.384 0.168 0.904 0.168s0.64-0.016 0.904-0.168c0.427-0.244 0.767-0.599 0.986-1.026l0.006-0.014c0.184-0.408 0.184-1.176 0-1.584-0.225-0.441-0.565-0.796-0.98-1.034l-0.012-0.006c-0.24-0.128-0.424-0.16-0.808-0.176-0.272-0.008-0.568 0-0.656 0.032zM7.552 21.416c0.576 0.424 0.656 1.144 0.192 1.68-0.232 0.264-0.536 0.368-0.944 0.328-0.546-0.063-0.966-0.523-0.966-1.081 0-0.102 0.014-0.201 0.040-0.294l-0.002 0.008c0.080-0.296 0.344-0.608 0.6-0.72 0.264-0.12 0.856-0.080 1.080 0.080zM11.656 22.032c-0.080 0.080-0.16 0.224-0.16 0.312 0 0.080 0.080 0.232 0.16 0.312l0.152 0.16h3.96c3.784 0 3.976-0.008 4.112-0.12 0.2-0.16 0.2-0.536 0-0.704-0.136-0.112-0.328-0.12-4.112-0.12h-3.96l-0.152 0.16z"></path>
</symbol>
<symbol id="icon-lightbulb" viewBox="0 0 32 32">
<path d="M15.704 0.128c-0.2 0.176-0.216 0.368-0.192 2.112l0.016 1.584 0.176 0.152c0.224 0.184 0.368 0.184 0.592 0l0.176-0.152 0.016-1.584c0.016-0.872 0-1.68-0.016-1.784-0.080-0.416-0.488-0.584-0.768-0.328zM5 4.56c-0.080 0.080-0.128 0.208-0.128 0.336 0 0.176 0.144 0.336 1.248 1.44 1.080 1.088 1.264 1.248 1.44 1.248 0.256 0 0.456-0.2 0.456-0.456 0-0.176-0.144-0.352-1.24-1.44-1.104-1.104-1.28-1.248-1.448-1.248-0.003-0-0.007-0-0.010-0-0.122 0-0.233 0.046-0.318 0.121l0-0zM25.224 5.68c-1.096 1.096-1.24 1.272-1.24 1.44 0 0.264 0.2 0.464 0.456 0.464 0.176 0 0.352-0.16 1.44-1.248 1.104-1.104 1.248-1.264 1.248-1.44 0-0.007 0.001-0.016 0.001-0.025 0-0.239-0.193-0.432-0.432-0.432-0.009 0-0.017 0-0.026 0.001l0.001-0c-0.176 0-0.344 0.144-1.44 1.24zM14.984 5.256c-0.592 0.064-1.624 0.304-2.168 0.512-2.112 0.8-4.048 2.512-5.040 4.496-0.248 0.496-0.256 0.6-0.080 0.824 0.16 0.192 0.48 0.224 0.632 0.048 0.048-0.056 0.224-0.352 0.384-0.64 0.992-1.792 2.648-3.2 4.584-3.896 1.664-0.592 3.744-0.592 5.4 0 3.3 1.191 5.616 4.296 5.616 7.942 0 0.031-0 0.063-0.001 0.094l0-0.005c0 1.384-0.272 2.568-0.864 3.776-0.376 0.768-0.848 1.424-1.68 2.352-0.96 1.072-1.304 1.616-1.52 2.4l-0.104 0.368h-8.16l-0.144-0.408c-0.256-0.792-0.608-1.28-1.864-2.664-0.827-0.873-1.471-1.929-1.863-3.101l-0.017-0.059c-0.257-0.717-0.406-1.544-0.406-2.405 0-0.198 0.008-0.394 0.023-0.588l-0.002 0.026c0.016-0.576 0.056-1.176 0.080-1.344 0.024-0.24 0.008-0.312-0.104-0.424-0.184-0.176-0.536-0.144-0.696 0.064-0.264 0.36-0.328 2.416-0.12 3.64 0.315 1.806 1.11 3.388 2.248 4.657l-0.008-0.009c1.256 1.392 1.408 1.584 1.64 2.040 0.128 0.264 0.256 0.608 0.28 0.744 0.016 0.16 0.056 1.104 0.080 2.12l0.048 1.84 0.2 0.416c0.136 0.28 0.32 0.528 0.568 0.752l0.368 0.336 0.032 0.536c0.048 0.944 0.528 1.68 1.36 2.080l0.4 0.192h4l0.416-0.192c0.798-0.371 1.345-1.16 1.36-2.078l0-0.002 0.032-0.536 0.36-0.336c0.24-0.224 0.44-0.48 0.568-0.752l0.208-0.408 0.032-2.104c0.032-1.976 0.040-2.112 0.176-2.44 0.324-0.665 0.728-1.235 1.209-1.729l-0.001 0.001c1.378-1.357 2.341-3.132 2.68-5.12l0.008-0.056c0.104-0.64 0.12-0.912 0.096-1.904 0-0.016 0-0.034 0-0.053 0-1.434-0.364-2.783-1.006-3.959l0.022 0.043c-1.554-3.070-4.685-5.138-8.3-5.138-0.34 0-0.675 0.018-1.005 0.054l0.041-0.004zM20.128 25.28v0.784h-0.656c-0.576 0-0.68 0.016-0.784 0.12-0.083 0.084-0.134 0.199-0.134 0.326 0 0.146 0.067 0.276 0.173 0.361l0.001 0.001c0.144 0.112 0.256 0.128 0.776 0.128h0.624v0.168c-0.008 0.232-0.224 0.696-0.432 0.912-0.088 0.104-0.28 0.24-0.416 0.32-0.24 0.128-0.296 0.128-3.184 0.128s-2.944 0-3.192-0.136c-0.136-0.064-0.32-0.208-0.416-0.312-0.216-0.249-0.366-0.559-0.423-0.901l-0.001-0.011v-0.168h4.864l0.16-0.136c0.224-0.208 0.24-0.472 0.040-0.68-0.12-0.112-0.208-0.12-2.6-0.12h-2.464v-1.568h8.064v0.784zM18.936 29.728c0 0.512-0.464 1.104-0.992 1.256-0.32 0.104-3.376 0.104-3.704 0-0.52-0.16-0.984-0.744-0.992-1.256v-0.224h5.688v0.224z"></path>
<path d="M19.12 11.68c-0.416 0.136-0.656 0.392-2.184 2.352-0.864 1.12-1.6 2.032-1.624 2.032s-0.4-0.4-0.84-0.896c-1.024-1.128-1.176-1.28-1.592-1.392-0.129-0.041-0.278-0.064-0.432-0.064-0.822 0-1.488 0.666-1.488 1.488 0 0.245 0.059 0.477 0.164 0.681l-0.004-0.008c0.064 0.12 0.584 0.744 1.16 1.376 2.48 2.736 2.424 2.688 3.12 2.688 0.448 0 0.8-0.144 1.072-0.44 0.685-0.803 1.363-1.69 1.994-2.612l0.070-0.108c0.088-0.352-0.448-0.68-0.728-0.448-0.056 0.040-0.536 0.64-1.080 1.336-0.536 0.696-1.016 1.28-1.072 1.296-0.071 0.024-0.153 0.038-0.238 0.038-0.102 0-0.199-0.020-0.287-0.056l0.005 0.002c-0.16-0.088-3.16-3.432-3.216-3.584-0.112-0.312 0.208-0.736 0.56-0.736 0.192 0 0.384 0.176 1.52 1.44 1.096 1.2 1.24 1.328 1.528 1.2 0.080-0.040 0.912-1.048 1.84-2.256 0.936-1.208 1.776-2.24 1.864-2.32 0.432-0.336 1.024 0.136 0.8 0.64-0.040 0.112-0.288 0.472-0.544 0.8-0.544 0.688-0.592 0.8-0.456 1.056 0.112 0.216 0.344 0.304 0.56 0.2 0.152-0.064 1.136-1.28 1.304-1.6 0.344-0.672 0.064-1.544-0.616-1.944-0.237-0.123-0.517-0.195-0.814-0.195-0.125 0-0.248 0.013-0.366 0.037l0.012-0.002zM0.56 15.264c-0.256 0.28-0.088 0.696 0.328 0.768 0.112 0.016 0.92 0.032 1.784 0.016l1.592-0.016 0.152-0.176c0.176-0.216 0.184-0.352 0.016-0.568l-0.128-0.16h-1.8c-1.784 0-1.816 0-1.944 0.136zM27.568 15.28c-0.168 0.224-0.16 0.36 0.016 0.576l0.16 0.176 1.584 0.016c0.864 0.016 1.672 0 1.784-0.016 0.4-0.080 0.584-0.496 0.32-0.768-0.12-0.136-0.152-0.136-1.928-0.136h-1.808l-0.128 0.16zM7.408 23.56c-0.072 0.024-0.672 0.6-1.328 1.264-1.064 1.072-1.2 1.24-1.2 1.416 0 0.264 0.192 0.448 0.448 0.448 0.184 0 0.344-0.136 1.44-1.248 1.096-1.080 1.248-1.264 1.248-1.44 0-0.32-0.336-0.56-0.608-0.44zM24.28 23.56c-0.192 0.080-0.296 0.24-0.296 0.448 0 0.16 0.176 0.368 1.24 1.44 1.104 1.104 1.264 1.24 1.44 1.24 0.272 0 0.464-0.184 0.464-0.448 0-0.176-0.144-0.344-1.232-1.44-0.421-0.445-0.865-0.856-1.335-1.236l-0.025-0.020c-0.031-0.008-0.066-0.012-0.102-0.012-0.055 0-0.108 0.010-0.157 0.029l0.003-0.001z"></path>
</symbol>
<symbol id="icon-learners" viewBox="0 0 32 32">
<path d="M15.36 9.425c-0.122 0.017-0.349 0.076-0.495 0.128-0.367 0.14-7.401 3.503-7.54 3.607-0.175 0.134-0.308 0.343-0.337 0.512-0.052 0.378 0.175 0.663 0.756 0.96l0.39 0.198v3.177l-0.163 0.105c-0.349 0.233-0.524 0.669-0.413 1.065 0.058 0.204 0.227 0.442 0.39 0.541 0.081 0.052 0.157 0.105 0.157 0.116 0 0.029-0.832 2.688-0.879 2.81-0.017 0.041 0.192 0.047 1.251 0.047 1.135 0 1.268-0.006 1.251-0.052-0.058-0.14-0.873-2.769-0.873-2.804 0-0.017 0.041-0.058 0.099-0.076 0.326-0.14 0.559-0.681 0.448-1.076-0.058-0.227-0.227-0.454-0.413-0.57l-0.175-0.105v-1.408c0-0.78 0.012-1.414 0.029-1.414l0.524 0.244 0.506 0.244v2.118c0 2.095 0 2.118 0.076 2.24 0.116 0.18 0.867 0.913 1.204 1.164 0.977 0.734 2.165 1.239 3.458 1.415l0.039 0.004c0.524 0.064 1.565 0.064 2.083 0 1.303-0.18 2.455-0.646 3.497-1.414 0.372-0.279 1.14-1.036 1.222-1.21 0.052-0.116 0.058-0.308 0.058-2.211v-2.083l1.245-0.611c0.585-0.276 1.039-0.517 1.482-0.773l-0.097 0.052c0.186-0.145 0.32-0.431 0.291-0.628-0.031-0.213-0.137-0.398-0.29-0.528l-0.001-0.001c-0.204-0.175-7.302-3.636-7.628-3.718-0.233-0.053-0.5-0.084-0.774-0.084-0.133 0-0.264 0.007-0.394 0.021l0.016-0.001zM16.39 10.124c0.099 0.029 1.519 0.704 3.153 1.507l3.59 1.751c0.343 0.169 0.634 0.326 0.64 0.361 0.017 0.029 0 0.081-0.035 0.122-0.671 0.384-1.57 0.842-2.488 1.268l-0.252 0.105c-0.017 0.023-1.047 0.535-2.298 1.135-1.676 0.815-2.31 1.105-2.455 1.129-0.291 0.058-0.721 0.047-0.972-0.012-0.145-0.035-1.047-0.448-2.618-1.199l-2.711-1.303c-0.175-0.081-0.308-0.157-0.291-0.163l3.089-0.372c3.287-0.384 3.183-0.367 3.258-0.576 0.041-0.116-0.006-0.25-0.128-0.337l-0.093-0.070-3.537 0.419c-1.949 0.233-3.578 0.413-3.631 0.419-0.116 0.006-0.931-0.396-0.966-0.477-0.017-0.041 0-0.076 0.058-0.116 0.087-0.070 6.877-3.345 7.238-3.497 0.332-0.14 0.582-0.18 0.937-0.163 0.18 0.006 0.407 0.041 0.512 0.070zM12.596 16.948c1.123 0.535 2.112 1.001 2.199 1.036s0.291 0.093 0.442 0.122c0.361 0.070 1.001 0.047 1.309-0.047 0.116-0.035 1.117-0.512 2.234-1.059l2.054-0.995c0.017 0 0.029 0.844 0.029 1.873v1.873l-0.244 0.256c-0.794 0.82-1.793 1.437-2.914 1.768l-0.047 0.012c-1.181 0.337-2.601 0.349-3.759 0.041-0.774-0.216-1.451-0.526-2.065-0.925l0.029 0.018c-0.372-0.256-0.966-0.756-1.175-1.007l-0.163-0.186v-1.879c0-1.036 0.006-1.879 0.017-1.879l2.054 0.977z"></path>
</symbol>
<symbol id="icon-instructor" viewBox="0 0 32 32">
<path d="M12.131 13.393c-0.076 0.070-0.087 0.111-0.087 0.32 0 0.215 0.012 0.256 0.087 0.326 0.052 0.058 0.116 0.081 0.186 0.081 0.064 0 0.134-0.029 0.186-0.081 0.076-0.070 0.087-0.116 0.087-0.326s-0.012-0.25-0.087-0.32c-0.047-0.051-0.112-0.084-0.186-0.087l-0.001-0c-0.074 0.003-0.14 0.036-0.186 0.087l-0 0zM15.401 13.393c-0.076 0.070-0.087 0.111-0.087 0.32 0 0.215 0.012 0.256 0.087 0.326 0.052 0.058 0.122 0.081 0.186 0.081s0.14-0.029 0.192-0.081c0.070-0.070 0.081-0.116 0.081-0.326s-0.012-0.25-0.081-0.32c-0.048-0.052-0.116-0.086-0.192-0.087h-0c-0.074 0.003-0.14 0.036-0.186 0.087l-0 0zM12.951 16.116c-0.401 0.396 0.634 0.89 1.431 0.681 0.239-0.058 0.512-0.204 0.599-0.314 0.198-0.262-0.128-0.582-0.384-0.384-0.204 0.157-0.308 0.192-0.64 0.192-0.337 0-0.442-0.035-0.646-0.192-0.046-0.040-0.106-0.064-0.171-0.064-0.075 0-0.142 0.031-0.189 0.081l-0 0z"></path>
<path d="M13.207 7.599c-1.001 0.14-2.333 0.599-3.759 1.297-1.047 0.506-1.047 0.483-0.326 1.193l0.506 0.495-0.047 0.14c-0.111 0.314-0.145 0.698-0.145 1.548v0.844l-0.093 0.058c-0.151 0.095-0.27 0.227-0.347 0.384l-0.002 0.006c-0.067 0.172-0.106 0.371-0.106 0.579 0 0.139 0.018 0.275 0.051 0.404l-0.002-0.011c0.116 0.372 0.512 0.663 0.913 0.663 0.145 0 0.134-0.029 0.198 0.407 0.19 0.972 0.717 1.797 1.451 2.367l0.009 0.007c0.105 0.058 0.111 0.076 0.111 0.279 0 0.192-0.006 0.209-0.087 0.233-0.052 0.012-0.134 0.093-0.221 0.233l-0.151 0.221-1.105 0.332c-0.605 0.175-1.199 0.367-1.315 0.419-0.882 0.416-1.521 1.22-1.702 2.186l-0.003 0.019c-0.041 0.233-0.052 0.593-0.052 1.629v1.321l0.087 0.081 0.081 0.087h13.3l0.169-0.169-0.006-1.46c-0.017-1.361-0.017-1.472-0.093-1.716-0.111-0.393-0.28-0.736-0.501-1.039l0.006 0.009-0.186-0.262h4.422l0.081-0.087 0.087-0.081v-11.119l-0.087-0.081-0.081-0.087h-7.116l-0.157-0.215c-0.384-0.524-1.088-0.884-2.065-1.059-0.384-0.064-1.385-0.099-1.722-0.052zM14.487 8.145c0.815 0.081 1.53 0.349 1.897 0.704 0.233 0.227 0.332 0.407 0.384 0.663l0.052 0.256c0.006 0.041 0.093 0.163 0.186 0.273 0.221 0.25 0.39 0.553 0.5 0.89 0.081 0.25 0.093 0.308 0.105 1.169l0.012 0.913h-0.192c-0.157 0-0.204-0.012-0.273-0.081-0.087-0.081-0.087-0.093-0.087-0.675 0-0.739-0.035-0.879-0.291-1.14-0.32-0.326-0.704-0.361-1.379-0.134-0.727 0.239-1.629 0.378-2.519 0.378-0.069 0.007-0.148 0.011-0.229 0.011-0.252 0-0.496-0.038-0.725-0.108l0.017 0.005c-0.932-0.339-1.728-0.85-2.386-1.502l0.001 0.001-0.244-0.221 0.378-0.175c1.006-0.534 2.173-0.953 3.403-1.197l0.082-0.014c0.372-0.058 0.844-0.064 1.309-0.017zM23.889 14.656v5.178h-4.742l-0.175-0.087c-0.076-0.040-0.174-0.085-0.274-0.126l-0.023-0.008c-0.099-0.035 0.279-0.047 2.327-0.047h2.444l0.169-0.169v-9.484l-0.081-0.081-0.081-0.087h-5.987l-0.076-0.116c-0.032-0.038-0.060-0.083-0.080-0.13l-0.001-0.003c0.725-0.017 1.579-0.027 2.436-0.027 0.301 0 0.602 0.001 0.903 0.004l-0.046-0h3.287v5.178zM23.075 14.656v4.364h-3.2c-2.025 0-3.241-0.017-3.316-0.035-0.087-0.029-0.145-0.081-0.262-0.256-0.093-0.145-0.175-0.233-0.233-0.244-0.076-0.017-0.081-0.035-0.081-0.233 0-0.122 0.012-0.221 0.029-0.221 0.871-0.64 1.464-1.613 1.592-2.728l0.002-0.018c0.012-0.064 0.041-0.076 0.209-0.093 0.349-0.035 0.628-0.221 0.797-0.535 0.070-0.14 0.081-0.204 0.081-0.547 0-0.349-0.012-0.407-0.081-0.547-0.078-0.165-0.197-0.3-0.345-0.393l-0.004-0.002-0.099-0.052v-0.838c0-1.059-0.035-1.292-0.291-1.92-0.023-0.058 0.116-0.058 2.589-0.058h2.612v4.364zM10.333 11.089c0.128 0.087 0.25 0.163 0.279 0.175 0.047 0.035 0.047 0.047-0.006 0.157-0.052 0.093-0.064 0.233-0.081 0.791-0.017 0.657-0.017 0.675-0.099 0.739-0.052 0.047-0.128 0.064-0.262 0.064h-0.18v-0.774c0-0.681 0.023-1.018 0.087-1.245 0.012-0.029 0.023-0.058 0.035-0.058l0.233 0.151zM16.401 11.514l0.111 0.105 0.017 0.675c0.012 0.57 0.023 0.698 0.081 0.803 0.064 0.14 0.337 0.401 0.419 0.401 0.041 0 0.047 0.14 0.035 0.977 0.006 0.089 0.010 0.193 0.010 0.298 0 0.333-0.035 0.658-0.102 0.972l0.005-0.030c-0.315 1.193-1.244 2.111-2.421 2.404l-0.023 0.005c-0.213 0.039-0.459 0.061-0.71 0.061-0.284 0-0.562-0.029-0.83-0.083l0.027 0.005c-1.179-0.305-2.089-1.213-2.392-2.368l-0.005-0.023c-0.064-0.233-0.076-0.378-0.087-1.239-0.012-0.838-0.012-0.977 0.035-0.977 0.076 0 0.349-0.262 0.419-0.401 0.058-0.111 0.070-0.233 0.081-0.803 0.012-0.378 0.029-0.681 0.052-0.704s0.105 0 0.233 0.058c0.352 0.14 0.759 0.235 1.185 0.267l0.014 0.001c0.047 0.001 0.102 0.001 0.157 0.001 1.096 0 2.15-0.177 3.136-0.504l-0.070 0.020c0.076-0.035 0.186-0.047 0.314-0.041 0.175 0.012 0.215 0.029 0.308 0.116zM9.984 14.115v0.553l-0.157-0.023c-0.106-0.004-0.2-0.050-0.267-0.122l-0-0c-0.105-0.105-0.105-0.116-0.105-0.407 0-0.279 0.006-0.314 0.081-0.396 0.105-0.116 0.186-0.151 0.337-0.151h0.111v0.547zM18.036 13.696c0.099 0.105 0.105 0.116 0.105 0.413s0 0.308-0.105 0.407c-0.067 0.074-0.161 0.123-0.267 0.128l-0.001 0-0.157 0.023v-1.117l0.157 0.023c0.116 0.012 0.186 0.047 0.268 0.122zM12.94 18.641c0.745 0.175 1.571 0.116 2.257-0.169l0.227-0.093 0.017 0.209 0.012 0.209-0.832 0.623-0.826 0.623-0.826-0.623-0.832-0.623 0.012-0.209 0.017-0.209 0.227 0.093c0.122 0.052 0.372 0.128 0.547 0.169zM12.515 19.759c0.419 0.314 0.762 0.582 0.768 0.593 0 0.023-0.739 0.471-0.78 0.471-0.335-0.366-0.677-0.764-1.008-1.172l-0.039-0.050c-0.035-0.047-0.023-0.093 0.081-0.25 0.070-0.111 0.145-0.192 0.169-0.175 0.017 0 0.384 0.268 0.809 0.582zM16.052 19.351c0.099 0.157 0.116 0.204 0.081 0.244-0.111 0.157-1.030 1.228-1.047 1.228-0.041 0-0.78-0.448-0.78-0.471s1.571-1.199 1.6-1.199c0.006 0 0.076 0.087 0.145 0.198zM11.491 20.503l0.774 0.908c0.041 0.035 0.111 0.058 0.157 0.058 0.064 0 0.081 0.017 0.058 0.058l-0.041 0.192c-0.017 0.116 0 0.14 0.116 0.25l0.128 0.116-0.111 0.553-0.116 0.564c-0.775-0.18-1.444-0.557-1.973-1.077l0.001 0.001c-0.476-0.447-0.773-1.080-0.773-1.783 0-0.099 0.006-0.198 0.018-0.294l-0.001 0.012 0.029-0.134 0.489-0.145c0.273-0.081 0.506-0.145 0.518-0.14 0.012 0 0.343 0.39 0.727 0.861zM17.344 19.782l0.495 0.145 0.029 0.134c0.017 0.070 0.017 0.273 0.012 0.442-0.058 1.14-0.989 2.141-2.438 2.618-0.157 0.058-0.291 0.087-0.297 0.081s-0.064-0.262-0.122-0.564l-0.116-0.553 0.134-0.116c0.116-0.116 0.128-0.134 0.116-0.25-0.012-0.071-0.028-0.134-0.049-0.194l0.002 0.008c-0.017-0.052 0-0.058 0.070-0.058 0.116 0 0.099 0.012 0.954-1.018 0.247-0.308 0.476-0.575 0.712-0.835l-0.013 0.015c0.012 0 0.239 0.058 0.512 0.145zM9.251 21.062c0.128 0.524 0.454 1.059 0.884 1.489 1.85 1.827 5.481 1.827 7.331 0 0.551-0.531 0.91-1.257 0.965-2.067l0.001-0.010 0.023-0.367 0.279 0.14c0.517 0.277 0.918 0.713 1.146 1.24l0.006 0.017c0.163 0.401 0.186 0.628 0.186 1.844v1.123h-12.544v-1.123c0-1.181 0.023-1.42 0.163-1.809 0.251-0.595 0.701-1.066 1.265-1.337l0.015-0.007 0.175-0.087 0.023 0.372c0.012 0.198 0.047 0.465 0.081 0.582zM14.121 20.887l0.268 0.169 0.186 0.582-0.384 0.291-0.39 0.291-0.78-0.582 0.099-0.291 0.093-0.291 0.268-0.169c0.151-0.087 0.291-0.163 0.32-0.163s0.175 0.076 0.32 0.163zM13.457 22.65c0.157 0.116 0.285 0.186 0.343 0.186s0.186-0.070 0.337-0.186c0.14-0.105 0.262-0.186 0.273-0.186s0.058 0.18 0.099 0.407c0.058 0.314 0.076 0.425 0.041 0.454-0.058 0.058-1.449 0.058-1.507 0-0.029-0.029-0.017-0.14 0.041-0.454 0.041-0.227 0.093-0.407 0.099-0.407 0.017 0 0.14 0.081 0.273 0.186z"></path>
</symbol>
<symbol id="icon-rate" viewBox="0 0 32 32">
<path d="M16.023 9.251c-0.064 0.052-0.186 0.244-0.303 0.465l-0.192 0.39-0.396 0.058c-0.57 0.087-0.756 0.204-0.756 0.495 0 0.186 0.076 0.314 0.401 0.628l0.285 0.279-0.064 0.337c-0.111 0.553-0.081 0.71 0.116 0.873 0.169 0.122 0.367 0.093 0.797-0.116l0.378-0.198 0.384 0.198c0.436 0.215 0.582 0.233 0.797 0.070 0.186-0.145 0.209-0.285 0.122-0.762l-0.070-0.407 0.308-0.308c0.337-0.337 0.413-0.483 0.367-0.692-0.058-0.25-0.209-0.32-0.867-0.407l-0.273-0.047-0.204-0.396c-0.233-0.454-0.337-0.553-0.582-0.553-0.006-0-0.012-0.001-0.019-0.001-0.089 0-0.17 0.033-0.232 0.088l0-0zM16.448 10.054c0.25 0.506 0.297 0.535 0.861 0.611 0.175 0.017 0.314 0.047 0.314 0.058s-0.128 0.151-0.291 0.314c-0.343 0.349-0.349 0.39-0.262 0.896 0.035 0.204 0.052 0.367 0.041 0.367s-0.175-0.076-0.349-0.175c-0.425-0.227-0.506-0.221-0.948 0.012-0.186 0.093-0.349 0.163-0.349 0.157-0.012-0.006 0.012-0.175 0.047-0.372 0.093-0.495 0.081-0.529-0.279-0.902l-0.303-0.314 0.396-0.052c0.268-0.035 0.425-0.076 0.489-0.116 0.047-0.035 0.175-0.233 0.273-0.431l0.198-0.367 0.163 0.314zM12.352 10.566c-0.145 0.081-0.233 0.198-0.407 0.547-0.066 0.143-0.134 0.263-0.21 0.377l0.007-0.011c-0.081 0-0.739 0.116-0.826 0.134-0.181 0.063-0.308 0.231-0.308 0.43 0 0.068 0.015 0.132 0.041 0.19l-0.001-0.003c0.029 0.070 0.186 0.25 0.349 0.407l0.291 0.303-0.058 0.326c-0.081 0.471-0.070 0.605 0.041 0.739 0.1 0.117 0.244 0.193 0.406 0.204l0.002 0c0.052 0 0.268-0.087 0.477-0.192l0.372-0.192 0.372 0.192c0.495 0.262 0.716 0.262 0.896-0.012 0.093-0.14 0.099-0.332 0.023-0.756l-0.058-0.308 0.308-0.314c0.349-0.355 0.419-0.5 0.349-0.716s-0.215-0.291-0.698-0.372l-0.436-0.070-0.175-0.367c-0.221-0.425-0.367-0.582-0.559-0.582-0.072 0.002-0.14 0.019-0.201 0.048l0.003-0.001zM12.73 11.491c0.209 0.419 0.273 0.465 0.791 0.535 0.192 0.023 0.349 0.058 0.349 0.064-0.090 0.11-0.183 0.209-0.283 0.301l-0.002 0.002c-0.349 0.332-0.367 0.378-0.279 0.89 0.029 0.192 0.047 0.361 0.041 0.367-0.006 0.012-0.163-0.058-0.349-0.157-0.431-0.227-0.495-0.227-0.943 0-0.186 0.099-0.349 0.169-0.355 0.157-0.006-0.006 0.012-0.145 0.035-0.303 0.105-0.564 0.081-0.663-0.32-1.012-0.128-0.116-0.239-0.227-0.239-0.239s0.151-0.047 0.343-0.070c0.524-0.064 0.593-0.111 0.815-0.553 0.099-0.204 0.192-0.361 0.204-0.349s0.099 0.175 0.192 0.367zM19.805 10.63c-0.087 0.058-0.169 0.175-0.303 0.442l-0.209 0.384c-0.113 0.031-0.248 0.056-0.386 0.069l-0.010 0.001c-0.564 0.087-0.762 0.215-0.762 0.495 0 0.169 0.087 0.303 0.407 0.623l0.291 0.303-0.058 0.314c-0.105 0.559-0.064 0.785 0.145 0.896 0.192 0.099 0.372 0.070 0.774-0.14l0.367-0.198 0.378 0.198c0.413 0.215 0.541 0.233 0.733 0.116 0.256-0.157 0.291-0.285 0.198-0.803l-0.064-0.396 0.285-0.291c0.401-0.407 0.471-0.582 0.349-0.826-0.076-0.145-0.268-0.221-0.727-0.291l-0.384-0.058-0.186-0.361c-0.221-0.448-0.297-0.524-0.535-0.541-0.145-0.012-0.204 0-0.303 0.064zM20.265 11.473c0.175 0.337 0.198 0.378 0.332 0.442 0.081 0.035 0.297 0.081 0.483 0.105 0.18 0.029 0.332 0.058 0.332 0.070l-0.291 0.314c-0.349 0.349-0.367 0.396-0.273 0.896 0.029 0.18 0.052 0.337 0.041 0.349-0.012 0.006-0.169-0.058-0.349-0.157-0.431-0.233-0.5-0.233-0.943 0-0.186 0.099-0.349 0.169-0.355 0.163 0.003-0.109 0.016-0.213 0.037-0.314l-0.002 0.011c0.081-0.442 0.070-0.582-0.041-0.739-0.095-0.112-0.196-0.213-0.305-0.305l-0.004-0.003c-0.116-0.105-0.209-0.198-0.209-0.209 0-0.017 0.151-0.047 0.337-0.076 0.524-0.058 0.593-0.105 0.82-0.553l0.192-0.367c0.012 0 0.093 0.169 0.198 0.372zM22.86 13.667c-0.128 0.137-0.233 0.297-0.31 0.472l-0.004 0.011-0.192 0.39-0.396 0.058c-0.436 0.064-0.623 0.14-0.698 0.291-0.064 0.116-0.070 0.314-0.017 0.419 0.023 0.041 0.175 0.209 0.343 0.384l0.303 0.303-0.076 0.431c-0.070 0.407-0.070 0.431-0.012 0.553 0.076 0.163 0.221 0.268 0.407 0.291 0.122 0.012 0.198-0.012 0.524-0.175l0.396-0.198 0.361 0.186c0.291 0.157 0.401 0.192 0.524 0.192 0.209 0 0.343-0.070 0.413-0.215s0.070-0.262-0.012-0.716l-0.058-0.367 0.25-0.233c0.32-0.291 0.436-0.465 0.407-0.652-0.029-0.244-0.175-0.39-0.419-0.442l-0.419-0.070-0.291-0.035-0.215-0.425c-0.163-0.326-0.239-0.442-0.326-0.489-0.175-0.111-0.337-0.093-0.483 0.035zM23.599 14.964c0.058 0.047 0.215 0.081 0.483 0.116l0.396 0.058-0.303 0.314c-0.198 0.204-0.308 0.343-0.32 0.413-0.012 0.058 0.006 0.273 0.041 0.477 0.041 0.204 0.058 0.378 0.052 0.384l-0.349-0.163c-0.448-0.233-0.524-0.233-0.948 0-0.175 0.093-0.332 0.163-0.343 0.151s0.006-0.186 0.041-0.39c0.076-0.477 0.058-0.524-0.291-0.873-0.098-0.090-0.187-0.185-0.27-0.286l-0.004-0.005c0-0.017 0.145-0.047 0.32-0.064 0.559-0.076 0.605-0.105 0.861-0.617l0.157-0.326 0.198 0.372c0.105 0.209 0.233 0.407 0.279 0.436zM9.303 13.632c-0.151 0.058-0.244 0.175-0.431 0.547-0.105 0.204-0.192 0.367-0.204 0.367l-0.378 0.058c-0.425 0.058-0.599 0.14-0.681 0.308-0.116 0.256-0.023 0.483 0.349 0.82l0.262 0.25-0.058 0.367c-0.070 0.442-0.070 0.559-0.006 0.704 0.064 0.163 0.198 0.233 0.396 0.233 0.134 0 0.233-0.041 0.535-0.198l0.367-0.198 0.378 0.198c0.233 0.116 0.419 0.186 0.489 0.186 0.18 0 0.396-0.14 0.465-0.303 0.047-0.134 0.047-0.163-0.017-0.553l-0.076-0.419 0.308-0.308c0.169-0.169 0.32-0.343 0.343-0.384 0.093-0.186 0-0.465-0.204-0.582-0.058-0.041-0.273-0.087-0.512-0.128l-0.413-0.058-0.192-0.396c-0.18-0.367-0.204-0.407-0.349-0.477-0.163-0.081-0.239-0.087-0.372-0.035zM9.658 14.545c0.175 0.337 0.204 0.384 0.337 0.436 0.076 0.041 0.291 0.087 0.477 0.116 0.175 0.017 0.332 0.047 0.332 0.058s-0.134 0.151-0.291 0.314c-0.163 0.169-0.297 0.332-0.314 0.39-0.012 0.058 0 0.262 0.035 0.471 0.035 0.204 0.058 0.378 0.047 0.39-0.012 0.006-0.163-0.058-0.343-0.157-0.419-0.233-0.495-0.233-0.948 0-0.192 0.093-0.349 0.169-0.355 0.157 0.003-0.109 0.016-0.213 0.037-0.314l-0.002 0.011c0.064-0.355 0.064-0.553 0-0.669-0.093-0.13-0.193-0.244-0.302-0.348l-0.001-0.001c-0.089-0.081-0.171-0.164-0.247-0.252l-0.003-0.004 0.396-0.058c0.5-0.076 0.547-0.116 0.774-0.57l0.175-0.349 0.198 0.378zM16.337 14.406c-0.25 0.087-0.396 0.215-0.506 0.431-0.081 0.163-0.093 0.244-0.116 0.692 0.001 0.018 0.001 0.038 0.001 0.059 0 0.381-0.097 0.74-0.268 1.052l0.006-0.011c-0.295 0.396-0.641 0.733-1.033 1.009l-0.014 0.010c-0.268 0.198-0.582 0.442-0.698 0.547l-0.209 0.18v-0.308c0-0.477 0.093-0.448-1.437-0.448-1.251 0-1.257 0-1.327 0.076-0.064 0.070-0.070 0.116-0.070 1.443v1.373l0.081 0.070c0.105 0.099 0.244 0.093 0.349-0.012l0.081-0.081v-2.356h1.809v5.865h-1.815v-2.56l-0.087-0.081c-0.105-0.111-0.25-0.116-0.349-0.006-0.076 0.076-0.076 0.087-0.076 1.548v1.466l0.081 0.076c0.076 0.070 0.087 0.070 1.338 0.070h1.268l0.070-0.076c0.058-0.064 0.076-0.116 0.076-0.291v-0.209l0.128 0.017c0.262 0.041 0.582 0.157 0.756 0.273 0.425 0.285 0.349 0.268 1.42 0.279l0.96 0.012 0.076-0.093c0.093-0.116 0.093-0.192-0.012-0.308l-0.081-0.099-0.902-0.017-0.896-0.012-0.163-0.116c-0.328-0.223-0.721-0.376-1.145-0.429l-0.013-0.001-0.128-0.023v-4.305l0.093-0.116c0.145-0.163 0.495-0.465 1.007-0.849 0.41-0.282 0.766-0.6 1.076-0.959l0.006-0.007c0.367-0.46 0.506-0.861 0.541-1.571 0.023-0.384 0.041-0.512 0.087-0.582 0.116-0.186 0.448-0.209 0.593-0.052 0.081 0.087 0.175 0.378 0.262 0.815 0.076 0.396 0.081 0.401 0.198 0.454 0.128 0.052 0.268 0.012 0.332-0.105 0.052-0.093 0.012-0.349-0.116-0.861-0.105-0.372-0.18-0.535-0.337-0.681-0.152-0.152-0.361-0.245-0.592-0.245-0.111 0-0.218 0.022-0.315 0.061l0.006-0.002z"></path>
<path d="M17.396 16.908c-0.099 0.047-0.128 0.14-0.192 0.559-0.029 0.186-0.093 0.454-0.14 0.593-0.076 0.215-0.087 0.32-0.087 0.64 0 0.623-0.105 0.931-0.396 1.228-0.209 0.196-0.479 0.328-0.779 0.366l-0.007 0.001c-0.291 0.052-0.355 0.099-0.355 0.273s0.099 0.239 0.367 0.233c0.479-0.035 0.901-0.251 1.203-0.581l0.001-0.001c0.303-0.349 0.436-0.687 0.465-1.228l0.017-0.349h0.704l-0.052 0.116c-0.058 0.163-0.058 0.518 0.012 0.721 0.041 0.116 0.116 0.233 0.244 0.355l0.192 0.192-0.081 0.169c-0.128 0.244-0.116 0.576 0.006 0.826 0.058 0.099 0.081 0.175 0.064 0.175s-0.087 0.058-0.169 0.122c-0.465 0.407-0.413 1.228 0.105 1.571l0.081 0.052-0.076 0.151c-0.128 0.256-0.14 0.477-0.029 0.826 0.023 0.070 0.017 0.070-0.407 0.087-0.384 0.012-0.436 0.017-0.5 0.081-0.099 0.099-0.099 0.279 0 0.361 0.070 0.058 0.192 0.058 1.484 0.058h1.396l0.175-0.081c0.489-0.233 0.716-0.815 0.5-1.303l-0.081-0.175 0.163-0.145c0.169-0.157 0.262-0.314 0.303-0.512 0.047-0.198 0.023-0.471-0.052-0.652l-0.076-0.169 0.081-0.058c0.39-0.268 0.535-0.826 0.326-1.245-0.066-0.124-0.147-0.229-0.244-0.319l-0.152-0.14 0.076-0.163c0.058-0.116 0.076-0.233 0.076-0.407 0-0.396-0.192-0.71-0.57-0.908-0.145-0.081-0.157-0.081-1.78-0.093l-1.629-0.006 0.023-0.076c0.058-0.192 0.157-0.756 0.157-0.884 0-0.099-0.029-0.157-0.087-0.215-0.087-0.093-0.163-0.105-0.279-0.047zM20.794 18.705c0.337 0.169 0.355 0.599 0.041 0.815-0.116 0.076-0.14 0.076-1.012 0.076s-0.896 0-1.007-0.076c-0.32-0.215-0.297-0.646 0.041-0.815 0.099-0.058 0.221-0.058 0.966-0.058s0.873 0 0.972 0.058zM21.114 20.16c0.32 0.128 0.384 0.535 0.122 0.785l-0.105 0.099-0.931 0.012c-0.919 0.012-0.931 0.012-1.047-0.064-0.314-0.215-0.291-0.663 0.047-0.826 0.151-0.076 1.74-0.081 1.92-0.012zM20.695 21.597c0.174 0.054 0.307 0.19 0.354 0.363l0.001 0.004c0.035 0.175 0 0.279-0.134 0.425l-0.116 0.128h-1.943l-0.105-0.099c-0.1-0.095-0.163-0.229-0.163-0.377 0-0.027 0.002-0.054 0.006-0.080l-0 0.003c0.023-0.134 0.215-0.337 0.332-0.367 0.128-0.023 1.647-0.023 1.769 0zM20.422 23.098c0.163 0.064 0.273 0.209 0.291 0.384 0.023 0.157-0.041 0.303-0.192 0.425l-0.111 0.093-0.605-0.012-0.611-0.006-0.099-0.099c-0.262-0.256-0.204-0.634 0.116-0.774 0.19-0.044 0.409-0.069 0.633-0.069 0.204 0 0.404 0.021 0.596 0.060l-0.019-0.003zM11.776 19.2c-0.081 0.081-0.087 0.105-0.087 0.506 0 0.396 0 0.431 0.076 0.495 0.116 0.111 0.273 0.099 0.367-0.012 0.058-0.081 0.070-0.134 0.070-0.5 0-0.384 0-0.407-0.087-0.483-0.043-0.047-0.102-0.078-0.167-0.087l-0.001-0c-0.069 0.008-0.13 0.040-0.174 0.087l-0 0z"></path>
</symbol>
<symbol id="icon-students" viewBox="0 0 32 32">
<path d="M15.825 9.757c-1.015 0.152-1.831 0.868-2.124 1.814l-0.005 0.019c-0.053 0.215-0.084 0.462-0.084 0.716s0.031 0.501 0.089 0.737l-0.004-0.021c0.331 1.076 1.315 1.844 2.48 1.844 0.008 0 0.016-0 0.023-0h-0.001c0.448 0 0.721-0.058 1.135-0.256 0.526-0.247 0.941-0.658 1.186-1.166l0.006-0.015c0.209-0.413 0.268-0.716 0.25-1.233-0.017-0.332-0.035-0.465-0.116-0.687-0.132-0.397-0.346-0.736-0.623-1.012l-0-0c-0.393-0.398-0.916-0.666-1.5-0.738l-0.012-0.001c-0.103-0.019-0.222-0.030-0.343-0.030s-0.24 0.011-0.355 0.032l0.012-0.002zM16.838 10.397c0.611 0.209 1.105 0.698 1.297 1.303 0.105 0.326 0.116 0.867 0.017 1.152-0.252 0.859-1.033 1.476-1.958 1.476-0.904 0-1.67-0.589-1.936-1.404l-0.004-0.014c-0.057-0.183-0.089-0.393-0.089-0.611 0-0.203 0.028-0.399 0.081-0.585l-0.004 0.015c0.24-0.691 0.803-1.214 1.504-1.393l0.015-0.003c0.279-0.058 0.815-0.023 1.076 0.064zM21.132 11.543c-0.708 0.177-1.266 0.694-1.497 1.364l-0.004 0.015c-0.087 0.256-0.105 0.815-0.035 1.053 0.193 0.667 0.688 1.189 1.323 1.415l0.015 0.005c0.512 0.175 1.030 0.134 1.548-0.116 0.662-0.332 1.108-1.006 1.108-1.784 0-0.683-0.344-1.286-0.869-1.644l-0.007-0.004c-0.325-0.217-0.724-0.347-1.154-0.347-0.152 0-0.299 0.016-0.442 0.047l0.014-0.002zM21.987 12.125c0.262 0.076 0.436 0.192 0.64 0.407 0.239 0.253 0.387 0.595 0.387 0.972 0 0.578-0.347 1.075-0.843 1.294l-0.009 0.004c-0.175 0.079-0.38 0.126-0.596 0.126-0.466 0-0.882-0.216-1.153-0.553l-0.002-0.003c-0.179-0.216-0.288-0.497-0.288-0.802 0-0.029 0.001-0.057 0.003-0.086l-0 0.004c0-0.314 0.012-0.361 0.111-0.576 0.175-0.372 0.512-0.669 0.913-0.791 0.192-0.064 0.623-0.058 0.838 0zM10.601 11.683c-0.512 0.105-0.977 0.419-1.263 0.849-0.212 0.31-0.338 0.693-0.338 1.106 0 0.556 0.23 1.059 0.599 1.419l0 0c0.349 0.349 0.931 0.593 1.425 0.593 0.895-0.027 1.647-0.611 1.921-1.417l0.004-0.015c0.116-0.337 0.105-0.855-0.012-1.187-0.109-0.335-0.295-0.62-0.54-0.842l-0.002-0.001c-0.357-0.341-0.841-0.552-1.375-0.552-0.15 0-0.296 0.017-0.436 0.048l0.013-0.002zM11.619 12.335c0.506 0.228 0.852 0.728 0.852 1.309 0 0.576-0.341 1.073-0.831 1.3l-0.009 0.004c-0.442 0.198-1.030 0.157-1.42-0.116-0.218-0.15-0.393-0.348-0.514-0.579l-0.004-0.009c-0.082-0.176-0.13-0.381-0.13-0.598 0-0.633 0.408-1.171 0.975-1.365l0.010-0.003c0.163-0.058 0.268-0.070 0.524-0.058 0.285 0 0.355 0.023 0.547 0.116zM15.884 15.232c-1.047 0.099-2.042 0.535-2.775 1.199l-0.233 0.215-0.326-0.157c-0.445-0.222-0.969-0.352-1.524-0.352-1.507 0-2.791 0.959-3.274 2.3l-0.008 0.024c-0.119 0.368-0.188 0.792-0.188 1.232 0 0.088 0.003 0.176 0.008 0.263l-0.001-0.012c0 0.669 0 0.675 0.093 0.855 0.070 0.134 0.14 0.209 0.268 0.291l0.163 0.099 1.728 0.006 1.728 0.012 0.023 0.14c0.029 0.198 0.128 0.372 0.291 0.524 0.291 0.256-0.076 0.233 4.433 0.233s4.143 0.023 4.433-0.233c0.192-0.175 0.279-0.361 0.297-0.64l0.017-0.227 1.711-0.012c0.148 0.005 0.322 0.008 0.496 0.008 0.458 0 0.912-0.020 1.36-0.058l-0.058 0.004c0.145-0.070 0.343-0.256 0.407-0.407 0.058-0.116 0.064-0.233 0.064-0.803 0-0.727-0.041-1.071-0.18-1.478-0.36-1.039-1.174-1.837-2.198-2.169l-0.024-0.007c-0.312-0.099-0.671-0.156-1.044-0.156-0.671 0-1.299 0.186-1.835 0.509l0.016-0.009-0.163 0.105-0.215-0.18c-0.829-0.705-1.912-1.133-3.096-1.133-0.139 0-0.277 0.006-0.413 0.018l0.018-0.001zM16.989 15.837c1.994 0.335 3.494 2.048 3.494 4.111 0 0.122-0.005 0.242-0.015 0.361l0.001-0.015c0.017 0.919 0 1.071-0.145 1.181-0.087 0.070-0.105 0.070-4.032 0.070-3.898 0-3.951 0-4.032-0.064-0.145-0.116-0.163-0.233-0.145-1.164-0.010-0.108-0.015-0.233-0.015-0.359 0-2.31 1.873-4.183 4.183-4.183 0.254 0 0.503 0.023 0.745 0.066l-0.025-0.004zM22.284 16.57c1.027 0.272 1.819 1.066 2.084 2.074l0.005 0.020c0.058 0.227 0.064 0.378 0.064 0.972 0.007 0.070 0.011 0.152 0.011 0.234 0 0.181-0.019 0.357-0.054 0.527l0.003-0.017c-0.029 0.029-0.454 0.041-1.699 0.041h-1.658l-0.017-0.588c0-0.005 0-0.011 0-0.016 0-0.755-0.194-1.465-0.535-2.083l0.011 0.022c-0.116-0.217-0.229-0.4-0.354-0.574l0.011 0.016-0.175-0.25 0.111-0.070c0.428-0.247 0.941-0.393 1.489-0.393 0.252 0 0.497 0.031 0.731 0.089l-0.021-0.004zM11.729 16.785c0.291 0.076 0.745 0.268 0.745 0.314-0.3 0.43-0.549 0.925-0.722 1.455l-0.011 0.040c-0.119 0.409-0.188 0.878-0.188 1.363 0 0.044 0.001 0.088 0.002 0.133l-0-0.006v0.541h-1.67c-1.42 0-1.67-0.006-1.711-0.052-0.027-0.149-0.042-0.321-0.042-0.496 0-0.116 0.007-0.231 0.020-0.344l-0.001 0.014c0.012-0.698 0.023-0.803 0.093-1.012 0.32-0.996 1.133-1.748 2.145-1.974l0.019-0.004c0.349-0.076 0.948-0.064 1.321 0.029z"></path>
</symbol>
<symbol id="icon-arrow-right" viewBox="0 0 32 32">
<path d="M13.302 9.961l5.588 5.543-5.588 5.543 1.818 1.834 7.437-7.377-7.437-7.378-1.818 1.835z"></path>
<path d="M8.662 8.126l-1.821 1.835 5.588 5.543-5.587 5.543 1.818 1.834 7.437-7.377-7.437-7.378z"></path>
</symbol>
<symbol id="icon-arrow-left" viewBox="0 0 32 32">
<path d="M16.943 10.275l-1.886-1.886-7.609 7.61 7.609 7.609 1.886-1.886-5.725-5.723 5.725-5.725z"></path>
<path d="M21.723 8.391l-7.609 7.609 7.609 7.609 1.886-1.886-5.725-5.723 5.725-5.725-1.886-1.886z"></path>
</symbol>
<symbol id="icon-clock" viewBox="0 0 32 32">
<path d="M16 2.667c-7.353 0-13.333 5.98-13.333 13.333s5.98 13.333 13.333 13.333 13.333-5.98 13.333-13.333-5.98-13.333-13.333-13.333zM16 26.667c-5.881 0-10.667-4.786-10.667-10.667s4.786-10.667 10.667-10.667 10.667 4.786 10.667 10.667-4.786 10.667-10.667 10.667z"></path>
<path d="M17.333 9.333h-2.667v7.218l4.391 4.391 1.884-1.884-3.609-3.609v-6.116z"></path>
</symbol>
<symbol id="icon-man" viewBox="0 0 32 32">
<path d="M14.736 2.667c-3.294 0-5.965 2.671-5.965 5.965s2.671 5.965 5.965 5.965v0c3.294 0 5.965-2.671 5.965-5.965s-2.671-5.965-5.965-5.965v0zM14.736 12.211c-1.977 0-3.579-1.602-3.579-3.579s1.602-3.579 3.579-3.579v0c1.977 0 3.579 1.602 3.579 3.579s-1.602 3.579-3.579 3.579v0zM25.474 25.333v-1.192c0-4.613-3.739-8.352-8.352-8.352v0h-4.77c-4.612 0.001-8.35 3.74-8.35 8.352v1.192h2.386v-1.192c0-3.294 2.671-5.965 5.965-5.965v0h4.773c3.294 0 5.965 2.671 5.965 5.965v0 1.192h2.386z"></path>
</symbol>
<symbol id="icon-student" viewBox="0 0 32 32">
<path d="M25.6 32c1.767 0 3.2-1.433 3.2-3.2v-19.2l-9.6-9.6h-12.8c-1.767 0-3.2 1.433-3.2 3.2v0 25.6c0 1.767 1.433 3.2 3.2 3.2v0h19.2zM17.6 3.2l8 8h-8v-8zM8 9.6h4.8v3.2h-4.8v-3.2zM8 16h16v3.2h-16v-3.2zM8 22.4h16v3.2h-16v-3.2z"></path>
</symbol>
<symbol id="icon-star" viewBox="0 0 32 32">
<path d="M29.263 12.239c-0.173-0.497-0.618-0.856-1.152-0.901l-0.005-0-7.603-0.606-3.289-7.279c-0.213-0.468-0.677-0.788-1.215-0.788s-1.001 0.319-1.211 0.778l-0.003 0.008-3.289 7.283-7.601 0.605c-0.689 0.057-1.227 0.631-1.227 1.33 0 0.374 0.154 0.712 0.402 0.954l5.617 5.476-1.987 8.603c-0.022 0.090-0.034 0.194-0.034 0.301 0 0.737 0.597 1.334 1.334 1.334 0.277 0 0.533-0.084 0.746-0.228l-0.005 0.003 7.259-4.84 7.259 4.84c0.208 0.14 0.464 0.223 0.739 0.223 0.738 0 1.336-0.598 1.336-1.336 0-0.129-0.018-0.254-0.053-0.372l0.002 0.009-2.439-8.534 6.046-5.442c0.271-0.245 0.441-0.599 0.441-0.992 0-0.153-0.026-0.3-0.073-0.437l0.003 0.009z"></path>
</symbol>
<symbol id="icon-arrow2" viewBox="0 0 32 32">
<path d="M7.92 28.358c0.168 0.089 0.368 0.141 0.579 0.141 0.266 0 0.513-0.083 0.717-0.224l-0.004 0.003 16.25-11.25c0.327-0.229 0.539-0.604 0.539-1.028s-0.212-0.799-0.535-1.025l-0.004-0.003-16.25-11.25c-0.199-0.14-0.447-0.224-0.714-0.224-0.689 0-1.248 0.559-1.248 1.248 0 0.002 0 0.003 0 0.005v-0 22.5c0 0 0 0 0 0.001 0 0.478 0.269 0.894 0.663 1.104l0.007 0.003zM9.75 7.138l12.804 8.862-12.804 8.864v-17.728z"></path>
</symbol>
</defs>
</svg>
