<svg width="55" height="55" fill="none" xmlns="http://www.w3.org/2000/svg"><circle cx="27.5" cy="27.5" r="27.5" fill="#FFF6E8"/><g fill="#0D5FF9"><path d="M20.85 23.02c-.13.12-.15.19-.15.55 0 .37.02.44.15.56.09.1.2.14.32.14.11 0 .23-.05.32-.14.13-.12.15-.2.15-.56 0-.36-.02-.43-.15-.55a.46.46 0 0 0-.32-.15.46.46 0 0 0-.32.15ZM26.47 23.02c-.13.12-.15.19-.15.55 0 .37.02.44.15.56.09.1.21.14.32.14.11 0 .24-.05.33-.14.12-.12.14-.2.14-.56 0-.36-.02-.43-.14-.55a.46.46 0 0 0-.33-.15.46.46 0 0 0-.32.15ZM22.26 27.7c-.69.68 1.09 1.53 2.46 1.17.41-.1.88-.35 1.03-.54.34-.45-.22-1-.66-.66-.35.27-.53.33-1.1.33-.58 0-.76-.06-1.11-.33a.45.45 0 0 0-.62.03Z"/><path d="M22.7 13.06c-1.72.24-4.01 1.03-6.46 2.23-1.8.87-1.8.83-.56 2.05l.87.85-.08.24c-.19.54-.25 1.2-.25 2.66v1.45l-.16.1a1.6 1.6 0 0 0-.6.67 2.8 2.8 0 0 0-.1 1.67c.2.64.88 1.14 1.57 1.14.25 0 .23-.05.34.7a6.75 6.75 0 0 0 2.51 4.08c.18.1.19.13.19.48 0 .33-.01.36-.15.4-.09.02-.23.16-.38.4l-.26.38-1.9.57c-1.04.3-2.06.63-2.26.72a5.2 5.2 0 0 0-2.93 3.79c-.07.4-.09 1.02-.09 2.8v2.27l.15.14.14.15h22.86l.15-.15.14-.14-.01-2.51c-.03-2.34-.03-2.53-.16-2.95a5.58 5.58 0 0 0-.85-1.77l-.32-.45H41.7l.14-.15.15-.14V15.63l-.15-.14-.14-.15H29.47l-.27-.37c-.66-.9-1.87-1.52-3.55-1.82-.66-.11-2.38-.17-2.96-.09Zm2.2.94c1.4.14 2.63.6 3.26 1.21.4.39.57.7.66 1.14l.09.44c.01.07.16.28.32.47.38.43.67.95.86 1.53.14.43.16.53.18 2.01l.02 1.57h-.33c-.27 0-.35-.02-.47-.14-.15-.14-.15-.16-.15-1.16 0-1.27-.06-1.51-.5-1.96-.55-.56-1.21-.62-2.37-.23-1.25.41-2.8.65-4.33.65a4.24 4.24 0 0 1-1.61-.16 11.18 11.18 0 0 1-4.1-2.58l-.42-.38.65-.3a22.1 22.1 0 0 1 5.99-2.08c.64-.1 1.45-.11 2.25-.03Zm16.16 11.19v8.9h-8.15l-.3-.15a5.9 5.9 0 0 0-.51-.23c-.17-.06.48-.08 4-.08h4.2l.15-.15.14-.14v-16.3l-.14-.14-.14-.15H30.02l-.13-.2a.89.89 0 0 1-.14-.23 192 192 0 0 1 5.66-.04h5.65v8.9Zm-1.4 0v7.5h-5.5c-3.48 0-5.57-.03-5.7-.06-.15-.05-.25-.14-.45-.44-.16-.25-.3-.4-.4-.42-.13-.03-.14-.06-.14-.4 0-.21.02-.38.05-.38a6.77 6.77 0 0 0 2.74-4.72c.02-.11.07-.13.36-.16.6-.06 1.08-.38 1.37-.92.12-.24.14-.35.14-.94 0-.6-.02-.7-.14-.94a1.59 1.59 0 0 0-.6-.68l-.17-.09V21.1c0-1.82-.06-2.22-.5-3.3-.04-.1.2-.1 4.45-.1h4.49v7.5Zm-21.9-6.13c.22.15.43.28.48.3.08.06.08.08-.01.27-.09.16-.11.4-.14 1.36-.03 1.13-.03 1.16-.17 1.27-.09.08-.22.11-.45.11h-.31v-1.33c0-1.17.04-1.75.15-2.14.02-.05.04-.1.06-.1l.4.26Zm10.43.73.19.18.03 1.16c.02.98.04 1.2.14 1.38.11.24.58.69.72.69.07 0 .08.24.06 1.68a7.94 7.94 0 0 1-.15 2.13 5.73 5.73 0 0 1-4.2 4.14 7.1 7.1 0 0 1-2.6-.03 5.69 5.69 0 0 1-4.12-4.11c-.11-.4-.13-.65-.15-2.13-.02-1.44-.02-1.68.06-1.68.13 0 .6-.45.72-.69.1-.19.12-.4.14-1.38.02-.65.05-1.17.09-1.21.04-.04.18 0 .4.1a7.2 7.2 0 0 0 2.06.46 17.1 17.1 0 0 0 5.54-.83c.13-.06.32-.08.54-.07.3.02.37.05.53.2Zm-11.03 4.47v.95l-.27-.04a.66.66 0 0 1-.46-.21c-.18-.18-.18-.2-.18-.7 0-.48.01-.54.14-.68.18-.2.32-.26.58-.26h.19v.94ZM31 23.54c.17.18.18.2.18.71s0 .53-.18.7a.66.66 0 0 1-.46.22l-.27.04v-1.92l.27.04c.2.02.32.08.46.21Zm-8.76 8.5c1.28.3 2.7.2 3.88-.29l.39-.16.03.36.02.36-1.43 1.07-1.42 1.07-1.42-1.07-1.43-1.07.02-.36.03-.36.39.16c.21.09.64.22.94.29Zm-.73 1.92c.72.54 1.31 1 1.32 1.02 0 .04-1.27.81-1.34.81a46.4 46.4 0 0 1-1.8-2.1c-.06-.08-.04-.16.14-.43.12-.19.25-.33.29-.3.03 0 .66.46 1.39 1Zm6.08-.7c.17.27.2.35.14.42-.19.27-1.77 2.11-1.8 2.11-.07 0-1.34-.77-1.34-.81 0-.04 2.7-2.06 2.75-2.06.01 0 .13.15.25.34Zm-7.84 1.98 1.33 1.56c.07.06.19.1.27.1.11 0 .14.03.1.1l-.07.33c-.03.2 0 .24.2.43l.22.2-.19.95-.2.97a7.07 7.07 0 0 1-3.39-1.85 4.2 4.2 0 0 1-1.3-3.55l.05-.23.84-.25c.47-.14.87-.25.89-.24.02 0 .59.67 1.25 1.48ZM29.81 34l.85.25.05.23c.03.12.03.47.02.76-.1 1.96-1.7 3.68-4.19 4.5-.27.1-.5.15-.51.14-.01-.01-.11-.45-.21-.97l-.2-.95.23-.2c.2-.2.22-.23.2-.43a1.97 1.97 0 0 0-.08-.32c-.03-.09 0-.1.12-.1.2 0 .17.02 1.64-1.75a30.8 30.8 0 0 1 1.2-1.41c.02 0 .41.1.88.25ZM15.9 36.2c.22.9.78 1.82 1.52 2.56 3.18 3.14 9.42 3.14 12.6 0a5.45 5.45 0 0 0 1.66-3.57l.04-.63.48.24a4.37 4.37 0 0 1 1.98 2.16c.28.69.32 1.08.32 3.17v1.93H12.94v-1.93c0-2.03.04-2.44.28-3.11a4.43 4.43 0 0 1 2.2-2.31l.3-.15.04.64c.02.34.08.8.14 1Zm8.37-.3.46.29.16.5.16.5-.66.5-.67.5-.67-.5-.67-.5.17-.5.16-.5.46-.29c.26-.15.5-.28.55-.28.05 0 .3.13.55.28Zm-1.14 3.03c.27.2.49.32.59.32.1 0 .32-.12.58-.32.24-.18.45-.32.47-.32.02 0 .1.31.17.7.1.54.13.73.07.78-.1.1-2.49.1-2.59 0-.05-.05-.03-.24.07-.78.07-.39.16-.7.17-.7.03 0 .24.14.47.32Z"/></g></svg>