<svg width="55" height="55" fill="none" xmlns="http://www.w3.org/2000/svg"><circle cx="27.5" cy="27.5" r="27.5" fill="#FEEFF1"/><path d="M26.4 16.2c-.21.03-.6.13-.85.22-.63.24-12.72 6.02-12.96 6.2-.3.23-.53.59-.58.88-.09.65.3 1.14 1.3 1.65l.67.34v5.46l-.28.18c-.6.4-.9 1.15-.71 1.83.1.35.39.76.67.93.14.09.27.18.27.2 0 .05-1.43 4.62-1.51 4.83-.03.07.33.08 2.15.08 1.95 0 2.18-.01 2.15-.09-.1-.24-1.5-4.76-1.5-4.82 0-.03.07-.1.17-.13.56-.24.96-1.17.77-1.85-.1-.39-.39-.78-.71-.98l-.3-.18v-2.42c0-1.34.02-2.43.05-2.43l.9.42.87.42v3.64c0 3.6 0 3.64.13 3.85.2.31 1.49 1.57 2.07 2a12.9 12.9 0 0 0 6.01 2.44c.9.11 2.69.11 3.58 0 2.24-.31 4.22-1.11 6.01-2.43.64-.48 1.96-1.78 2.1-2.08.09-.2.1-.53.1-3.8v-3.58l2.14-1.05a34.77 34.77 0 0 0 2.38-1.24c.32-.25.55-.74.5-1.08a1.46 1.46 0 0 0-.5-.91c-.35-.3-12.55-6.25-13.11-6.39a6.23 6.23 0 0 0-1.98-.11Zm1.77 1.2c.17.05 2.61 1.21 5.42 2.59L39.76 23c.59.29 1.09.56 1.1.62.03.05 0 .14-.06.21a70.22 70.22 0 0 1-4.71 2.36c-.03.04-1.8.92-3.95 1.95-2.88 1.4-3.97 1.9-4.22 1.94-.5.1-1.24.08-1.67-.02-.25-.06-1.8-.77-4.5-2.06l-4.66-2.24c-.3-.14-.53-.27-.5-.28l5.31-.64c5.65-.66 5.47-.63 5.6-.99.07-.2-.01-.43-.22-.58l-.16-.12-6.08.72c-3.35.4-6.15.71-6.24.72-.2.01-1.6-.68-1.66-.82-.03-.07 0-.13.1-.2.15-.12 11.82-5.75 12.44-6.01.57-.24 1-.31 1.61-.28.31.01.7.07.88.12Zm-6.52 11.73c1.93.92 3.63 1.72 3.78 1.78.15.06.5.16.76.21.62.12 1.72.08 2.25-.08.2-.06 1.92-.88 3.84-1.82l3.53-1.71c.03 0 .05 1.45.05 3.22v3.22l-.42.44a11.53 11.53 0 0 1-5.09 3.06c-2.03.58-4.47.6-6.46.07a12.74 12.74 0 0 1-3.5-1.56c-.64-.44-1.66-1.3-2.02-1.73l-.28-.32v-3.23c0-1.78.01-3.23.03-3.23l3.53 1.68Z" fill="#0D5FF9"/></svg>