<svg width="55" height="55" fill="none" xmlns="http://www.w3.org/2000/svg"><circle cx="27.5" cy="27.5" r="27.5" fill="#E5F8F8"/><g fill="#0D5FF9"><path d="M27.54 15.9c-.11.09-.32.42-.52.8l-.33.67-.68.1c-.98.15-1.3.35-1.3.85 0 .32.13.54.69 1.08l.49.48-.11.58c-.19.95-.14 1.22.2 1.5.29.21.63.16 1.37-.2l.65-.34.66.34c.75.37 1 .4 1.37.12.32-.25.36-.49.21-1.31l-.12-.7.53-.53c.58-.58.71-.83.63-1.19-.1-.43-.36-.55-1.49-.7l-.47-.08-.35-.68c-.4-.78-.58-.95-1-.95a.6.6 0 0 0-.43.15Zm.73 1.38c.43.87.51.92 1.48 1.05.3.03.54.08.54.1 0 .02-.22.26-.5.54-.59.6-.6.67-.45 1.54.06.35.09.63.07.63-.02 0-.3-.13-.6-.3-.73-.39-.87-.38-1.63.02-.32.16-.6.28-.6.27-.02-.01.02-.3.08-.64.16-.85.14-.91-.48-1.55l-.52-.54.68-.09c.46-.06.73-.13.84-.2.08-.06.3-.4.47-.74l.34-.63.28.54ZM21.23 18.16c-.25.14-.4.34-.7.94a4.9 4.9 0 0 1-.35.63c-.14 0-1.27.2-1.42.23a.78.78 0 0 0-.46 1.06c.05.12.32.43.6.7l.5.52-.1.56c-.14.81-.12 1.04.07 1.27a1 1 0 0 0 .7.35c.09 0 .46-.15.82-.33l.64-.33.64.33c.85.45 1.23.45 1.54-.02.16-.24.17-.57.04-1.3l-.1-.53.53-.54c.6-.61.72-.86.6-1.23s-.37-.5-1.2-.64l-.75-.12-.3-.63c-.38-.73-.63-1-.96-1a.86.86 0 0 0-.34.08Zm.65 1.59c.36.72.47.8 1.36.92.33.04.6.1.6.11a5 5 0 0 1-.49.52c-.6.57-.63.65-.48 1.53.05.33.08.62.07.63-.01.02-.28-.1-.6-.27-.74-.39-.85-.39-1.62 0-.32.17-.6.29-.61.27-.01-.01.02-.25.06-.52.18-.97.14-1.14-.55-1.74-.22-.2-.41-.39-.41-.41 0-.02.26-.08.59-.12.9-.11 1.02-.19 1.4-.95.17-.35.33-.62.35-.6.02.02.17.3.33.63ZM34.04 18.27c-.15.1-.29.3-.52.76l-.36.66a4.2 4.2 0 0 1-.68.12c-.97.15-1.31.37-1.31.85 0 .29.15.52.7 1.07l.5.52-.1.54c-.18.96-.11 1.35.25 1.54.33.17.64.12 1.33-.24l.63-.34.65.34c.71.37.93.4 1.26.2.44-.27.5-.49.34-1.38l-.11-.68.49-.5c.69-.7.81-1 .6-1.42-.13-.25-.46-.38-1.25-.5l-.66-.1-.32-.62c-.38-.77-.51-.9-.92-.93-.25-.02-.35 0-.52.11Zm.79 1.45c.3.58.34.65.57.76.14.06.51.14.83.18.31.05.57.1.57.12l-.5.54c-.6.6-.63.68-.47 1.54.05.31.09.58.07.6-.02.01-.29-.1-.6-.27-.74-.4-.86-.4-1.62 0-.32.17-.6.29-.61.28a3 3 0 0 1 .06-.52c.14-.76.12-1-.07-1.27a4.4 4.4 0 0 0-.53-.53c-.2-.18-.36-.34-.36-.36 0-.03.26-.08.58-.13.9-.1 1.02-.18 1.41-.95l.33-.63c.02 0 .16.29.34.64ZM39.29 23.49a2.9 2.9 0 0 0-.54.83l-.33.67-.68.1c-.75.11-1.07.24-1.2.5-.11.2-.12.54-.03.72.04.07.3.36.59.66l.52.52-.13.74c-.12.7-.12.74-.02.95.13.28.38.46.7.5.21.02.34-.02.9-.3l.68-.34.62.32c.5.27.69.33.9.33.36 0 .59-.12.71-.37s.12-.45-.02-1.23l-.1-.63.43-.4c.55-.5.75-.8.7-1.12-.05-.42-.3-.67-.72-.76l-.72-.12-.5-.06-.37-.73c-.28-.56-.41-.76-.56-.84-.3-.19-.58-.16-.83.06Zm1.27 2.23c.1.08.37.14.83.2l.68.1-.52.54c-.34.35-.53.59-.55.71-.02.1.01.47.07.82.07.35.1.65.09.66l-.6-.28c-.77-.4-.9-.4-1.63 0-.3.16-.57.28-.59.26-.02-.02.01-.32.07-.67.13-.82.1-.9-.5-1.5a4.65 4.65 0 0 1-.47-.5c0-.03.25-.08.55-.11.96-.13 1.04-.18 1.48-1.06l.27-.56.34.64c.18.36.4.7.48.75ZM15.99 23.43c-.26.1-.42.3-.74.94-.18.35-.33.63-.35.63l-.65.1c-.73.1-1.03.24-1.17.53-.2.44-.04.83.6 1.41l.45.43-.1.63c-.12.76-.12.96-.01 1.21.11.28.34.4.68.4.23 0 .4-.07.92-.34l.63-.34.65.34c.4.2.72.32.84.32.31 0 .68-.24.8-.52.08-.23.08-.28-.03-.95l-.13-.72.53-.53c.29-.29.55-.59.59-.66.16-.32 0-.8-.35-1-.1-.07-.47-.15-.88-.22l-.71-.1-.33-.68c-.31-.63-.35-.7-.6-.82-.28-.14-.41-.15-.64-.06ZM16.6 25c.3.58.35.66.58.75.13.07.5.15.82.2.3.03.57.08.57.1 0 .02-.23.26-.5.54-.28.29-.51.57-.54.67-.02.1 0 .45.06.81.06.35.1.65.08.67-.02.01-.28-.1-.59-.27-.72-.4-.85-.4-1.63 0-.33.16-.6.29-.61.27a3 3 0 0 1 .06-.52c.11-.61.11-.95 0-1.15a4.2 4.2 0 0 0-.52-.6 5.1 5.1 0 0 1-.43-.44l.68-.1c.86-.13.94-.2 1.33-.98l.3-.6.34.65ZM28.08 24.76c-.43.15-.68.37-.87.74-.14.28-.16.42-.2 1.19a3.77 3.77 0 0 1-.45 1.89 7.76 7.76 0 0 1-1.8 1.75c-.46.34-1 .76-1.2.94l-.36.31v-.53c0-.82.16-.77-2.47-.77-2.15 0-2.16 0-2.28.13-.11.12-.12.2-.12 2.48v2.36l.14.12c.18.17.42.16.6-.02l.14-.14v-4.05H22.32v10.08H19.2v-4.4l-.15-.14c-.18-.19-.43-.2-.6-.01-.13.13-.13.15-.13 2.66v2.52l.14.13c.13.12.15.12 2.3.12h2.18l.12-.13c.1-.11.13-.2.13-.5v-.36l.22.03c.45.07 1 .27 1.3.47.73.49.6.46 2.44.48l1.65.02.13-.16c.16-.2.16-.33-.02-.53l-.14-.17-1.55-.03-1.54-.02-.28-.2a4.57 4.57 0 0 0-1.99-.74l-.22-.04v-7.4l.16-.2c.25-.28.85-.8 1.73-1.46a9.6 9.6 0 0 0 1.86-1.66c.63-.79.87-1.48.93-2.7.04-.66.07-.88.15-1 .2-.32.77-.36 1.02-.09.14.15.3.65.45 1.4.13.68.14.69.34.78.22.09.46.02.57-.18.09-.16.02-.6-.2-1.48-.18-.64-.31-.92-.58-1.17a1.44 1.44 0 0 0-1.55-.32Z"/><path d="M29.9 29.06c-.17.08-.22.24-.33.96-.05.32-.16.78-.24 1.02-.13.37-.15.55-.15 1.1 0 1.07-.18 1.6-.68 2.11a2.4 2.4 0 0 1-1.35.63c-.5.09-.61.17-.61.47 0 .3.17.41.63.4a3.1 3.1 0 0 0 2.07-1c.52-.6.75-1.18.8-2.11l.03-.6h1.21l-.09.2c-.1.28-.1.89.02 1.24.07.2.2.4.42.61l.33.33-.14.29c-.22.42-.2.99.01 1.42.1.17.14.3.11.3-.03 0-.15.1-.29.21-.8.7-.71 2.11.18 2.7l.14.09-.13.26c-.22.44-.24.82-.05 1.42.04.12.03.12-.7.15-.66.02-.75.03-.86.14-.17.17-.17.48 0 .62.12.1.33.1 2.55.1h2.4l.3-.14c.84-.4 1.23-1.4.86-2.24l-.14-.3.28-.25c.29-.27.45-.54.52-.88.08-.34.04-.81-.09-1.12l-.13-.29.14-.1c.67-.46.92-1.42.56-2.14a2.06 2.06 0 0 0-.42-.55l-.26-.24.13-.28c.1-.2.13-.4.13-.7 0-.68-.33-1.22-.98-1.56-.25-.14-.27-.14-3.06-.16l-2.8-.01.04-.13c.1-.33.27-1.3.27-1.52 0-.17-.05-.27-.15-.37-.15-.16-.28-.18-.48-.08Zm5.84 3.09c.58.29.61 1.03.07 1.4-.2.13-.24.13-1.74.13s-1.54 0-1.73-.13c-.55-.37-.51-1.11.07-1.4.17-.1.38-.1 1.66-.1 1.28 0 1.5 0 1.67.1Zm.55 2.5c.55.22.66.92.21 1.35l-.18.17-1.6.02c-1.58.02-1.6.02-1.8-.11-.54-.37-.5-1.14.08-1.42.26-.13 2.99-.14 3.3-.02Zm-.72 2.47a.9.9 0 0 1 .61.63c.06.3 0 .48-.23.73l-.2.22h-3.34l-.18-.17a.89.89 0 0 1-.27-.78c.04-.23.37-.58.57-.63.22-.04 2.83-.04 3.04 0Zm-.47 2.58c.28.11.47.36.5.66.04.27-.07.52-.33.73l-.19.16-1.04-.02-1.05-.01-.17-.17c-.45-.44-.35-1.09.2-1.33a5.07 5.07 0 0 1 2.08-.02ZM20.24 33c-.14.14-.15.18-.15.87 0 .68 0 .74.13.85.2.19.47.17.63-.02.1-.14.12-.23.12-.86 0-.66 0-.7-.15-.83a.48.48 0 0 0-.29-.15.48.48 0 0 0-.3.15Z"/></g></svg>