<svg width="55" height="55" fill="none" xmlns="http://www.w3.org/2000/svg"><circle cx="27.5" cy="27.5" r="27.5" fill="#F5F4FF"/><g fill="#0D5FF9"><path d="M27.2 16.77a4.5 4.5 0 0 0-3.66 3.15 5.3 5.3 0 0 0 0 2.46 4.45 4.45 0 0 0 4.3 3.17c.77 0 1.24-.1 1.95-.44a4.24 4.24 0 0 0 2.05-2.03c.36-.71.46-1.23.43-2.12-.03-.57-.06-.8-.2-1.18A4.39 4.39 0 0 0 31 18.04a4.38 4.38 0 0 0-2.6-1.27 3.35 3.35 0 0 0-1.18 0Zm1.74 1.1c1.05.36 1.9 1.2 2.23 2.24.18.56.2 1.49.03 1.98a3.5 3.5 0 0 1-6.7.1 3.66 3.66 0 0 1-.02-2.03 3.7 3.7 0 0 1 2.61-2.4c.48-.1 1.4-.04 1.85.11ZM36.32 19.84a3.63 3.63 0 0 0-2.58 2.37c-.15.44-.18 1.4-.06 1.81a3.63 3.63 0 0 0 2.3 2.44c.88.3 1.77.23 2.66-.2a3.42 3.42 0 0 0 .4-5.9 3.6 3.6 0 0 0-2.72-.52Zm1.47 1c.45.13.75.33 1.1.7a2.43 2.43 0 0 1-.8 3.9 2.54 2.54 0 0 1-3.01-.74 2.17 2.17 0 0 1-.49-1.52c0-.54.02-.62.19-.99.3-.64.88-1.15 1.57-1.36.33-.11 1.07-.1 1.44 0ZM18.22 20.08c-.88.18-1.68.72-2.17 1.46a3.4 3.4 0 0 0 .45 4.34c.6.6 1.6 1.02 2.45 1.02a3.6 3.6 0 0 0 3.31-2.46c.2-.58.18-1.47-.02-2.04a3.32 3.32 0 0 0-.93-1.45 3.42 3.42 0 0 0-3.09-.87Zm1.75 1.12a2.46 2.46 0 0 1 .02 4.49c-.76.34-1.77.27-2.44-.2a2.73 2.73 0 0 1-.89-1.01 2.48 2.48 0 0 1 1.47-3.38c.28-.1.46-.12.9-.1.49 0 .61.04.94.2ZM27.3 26.18c-1.8.17-3.51.92-4.77 2.06l-.4.37-.56-.27a5.98 5.98 0 0 0-8.26 3.39 7.1 7.1 0 0 0-.31 2.55c0 1.15 0 1.16.16 1.47.12.23.24.36.46.5l.28.17 2.97.01 2.97.02.04.24c.05.34.22.64.5.9.5.44-.13.4 7.62.4s7.12.04 7.62-.4c.33-.3.48-.62.51-1.1l.03-.39 2.94-.02a26.8 26.8 0 0 0 3.09-.08c.25-.12.59-.44.7-.7.1-.2.11-.4.11-1.38 0-1.25-.07-1.84-.31-2.54a5.92 5.92 0 0 0-3.82-3.74 6.12 6.12 0 0 0-4.92.59l-.28.18-.37-.31a8.24 8.24 0 0 0-6-1.92Zm1.9 1.04a7.16 7.16 0 0 1 5.98 7.66c.03 1.58 0 1.84-.25 2.03-.15.12-.18.12-6.93.12-6.7 0-6.79 0-6.93-.11-.25-.2-.28-.4-.25-2a7.19 7.19 0 0 1 8.4-7.7Zm9.1 1.26a5 5 0 0 1 3.59 3.6c.1.39.11.65.11 1.67a4.4 4.4 0 0 1-.07 1.28c-.05.05-.78.07-2.92.07h-2.85l-.03-1.01a7.42 7.42 0 0 0-.9-3.57 8.8 8.8 0 0 0-.59-.96l-.3-.43.19-.12a5.18 5.18 0 0 1 3.78-.53Zm-18.14.37c.5.13 1.28.46 1.28.54a9.68 9.68 0 0 0-1.26 2.57 8.67 8.67 0 0 0-.32 2.56v.93h-2.87c-2.44 0-2.87-.01-2.94-.09a5.1 5.1 0 0 1-.04-1.42c.02-1.2.04-1.38.16-1.74a5.02 5.02 0 0 1 3.72-3.4c.6-.13 1.63-.11 2.27.05Z"/></g></svg>